<?xml version="1.0" encoding="UTF-8"?>
<!DOCTYPE svg PUBLIC "-//W3C//DTD SVG 1.1//EN" "http://www.w3.org/Graphics/SVG/1.1/DTD/svg11.dtd">
<svg xmlns="http://www.w3.org/2000/svg" xmlns:xlink="http://www.w3.org/1999/xlink" version="1.1" width="391px" height="390px" viewBox="-0.5 -0.5 391 390"><defs/><g><path d="M 169 389 L 189 159 L 229 159 L 249 389 Z" fill="#fecd4d" stroke="none" pointer-events="all"/><path d="M 149 389 L 169 159 L 208.47 159 L 228.47 389 Z" fill="#cf2b03" stroke="none" pointer-events="all"/><path d="M 146 369 L 166 169 L 186 169 L 206 369 Z" fill="#881201" stroke="none" pointer-events="all"/><path d="M 244.21 339 C 255.49 338.15 263.54 331.69 262.19 324.57 C 260.84 317.45 250.59 312.38 239.31 313.23 C 239.18 302.6 227.37 293.46 210.89 291.23 C 194.41 289 177.68 294.29 170.66 303.96 C 165.46 300.2 157.19 298.79 149.7 300.36 C 142.2 301.94 136.93 306.2 136.34 311.17 C 124.15 310.89 113.91 316.89 113.46 324.57 C 113.01 332.25 122.52 338.72 134.71 339 Z" fill="#fecd4d" stroke="none" pointer-events="all"/><path d="M 287.63 169 C 307.12 166.1 321.02 144.13 318.69 119.94 C 316.35 95.74 298.65 78.49 279.16 81.39 C 278.95 45.25 258.54 14.15 230.07 6.58 C 201.61 -1 172.72 16.99 160.6 49.85 C 151.61 37.09 137.33 32.28 124.38 37.64 C 111.43 42.99 102.34 57.48 101.31 74.38 C 80.26 73.41 62.57 93.81 61.79 119.94 C 61.01 146.07 77.44 168.03 98.49 169 Z" fill="#fecd4d" stroke="none" pointer-events="all"/><path d="M 246.94 109 C 258.22 107.12 266.27 92.91 264.92 77.25 C 263.57 61.6 253.32 50.43 242.04 52.31 C 241.91 28.93 230.1 8.8 213.62 3.9 C 197.14 -1 180.41 10.64 173.39 31.9 C 168.19 23.65 159.92 20.53 152.43 24 C 144.93 27.47 139.66 36.84 139.07 47.78 C 126.88 47.15 116.64 60.35 116.19 77.25 C 115.74 94.16 125.25 108.37 137.44 109 Z" fill="#fecd4d" stroke="none" transform="translate(190.99,0)scale(-1,1)translate(-190.99,0)" pointer-events="all"/><path d="M 166.21 169 C 177.49 167.46 185.54 155.83 184.19 143.03 C 182.84 130.22 172.59 121.08 161.31 122.62 C 161.18 103.49 149.37 87.02 132.89 83.01 C 116.41 79 99.68 88.53 92.66 105.92 C 87.46 99.17 79.19 96.62 71.7 99.45 C 64.2 102.29 58.93 109.96 58.34 118.91 C 46.15 118.39 35.91 129.19 35.46 143.03 C 35.01 156.86 44.52 168.49 56.71 169 Z" fill="#fecd4d" stroke="none" transform="translate(110.27,0)scale(-1,1)translate(-110.27,0)" pointer-events="all"/><path d="M 316.74 149 C 328.02 147.12 336.07 132.91 334.72 117.25 C 333.37 101.6 323.12 90.43 311.84 92.31 C 311.71 68.93 299.9 48.8 283.42 43.9 C 266.94 39 250.21 50.64 243.19 71.9 C 237.99 63.65 229.72 60.53 222.23 64 C 214.73 67.47 209.46 76.84 208.87 87.78 C 196.68 87.15 186.44 100.35 185.99 117.25 C 185.54 134.16 195.05 148.37 207.24 149 Z" fill="#fecd4d" stroke="none" transform="translate(260.8,0)scale(-1,1)translate(-260.8,0)" pointer-events="all"/><path d="M 342.21 169 C 353.49 167.46 361.54 155.83 360.19 143.03 C 358.84 130.22 348.59 121.08 337.31 122.62 C 337.18 103.49 325.37 87.02 308.89 83.01 C 292.41 79 275.68 88.53 268.66 105.92 C 263.46 99.17 255.19 96.62 247.7 99.45 C 240.2 102.29 234.93 109.96 234.34 118.91 C 222.15 118.39 211.91 129.19 211.46 143.03 C 211.01 156.86 220.52 168.49 232.71 169 Z" fill="#fecd4d" stroke="none" transform="translate(286.27,0)scale(-1,1)translate(-286.27,0)" pointer-events="all"/><path d="M 200.21 359 C 211.49 358.15 219.54 351.69 218.19 344.57 C 216.84 337.45 206.59 332.38 195.31 333.23 C 195.18 322.6 183.37 313.46 166.89 311.23 C 150.41 309 133.68 314.29 126.66 323.96 C 121.46 320.2 113.19 318.79 105.7 320.36 C 98.2 321.94 92.93 326.2 92.34 331.17 C 80.15 330.89 69.91 336.89 69.46 344.57 C 69.01 352.25 78.52 358.72 90.71 359 Z" fill="#fecd4d" stroke="none" transform="translate(144.26,0)scale(-1,1)translate(-144.26,0)" pointer-events="all"/><path d="M 301.68 359 C 312.96 358.15 321.01 351.69 319.66 344.57 C 318.31 337.45 308.06 332.38 296.78 333.23 C 296.65 322.6 284.84 313.46 268.36 311.23 C 251.88 309 235.15 314.29 228.13 323.96 C 222.93 320.2 214.66 318.79 207.17 320.36 C 199.67 321.94 194.4 326.2 193.81 331.17 C 181.62 330.89 171.38 336.89 170.93 344.57 C 170.48 352.25 179.99 358.72 192.18 359 Z" fill="#fecd4d" stroke="none" pointer-events="all"/><path d="M 170.21 389 C 181.49 388.15 189.54 381.69 188.19 374.57 C 186.84 367.45 176.59 362.38 165.31 363.23 C 165.18 352.6 153.37 343.46 136.89 341.23 C 120.41 339 103.68 344.29 96.66 353.96 C 91.46 350.2 83.19 348.79 75.7 350.36 C 68.2 351.94 62.93 356.2 62.34 361.17 C 50.15 360.89 39.91 366.89 39.46 374.57 C 39.01 382.25 48.52 388.72 60.71 389 Z" fill="#fecd4d" stroke="none" transform="translate(114.27,0)scale(-1,1)translate(-114.27,0)" pointer-events="all"/><path d="M 370.21 389 C 381.49 388.15 389.54 381.69 388.19 374.57 C 386.84 367.45 376.59 362.38 365.31 363.23 C 365.18 352.6 353.37 343.46 336.89 341.23 C 320.41 339 303.68 344.29 296.66 353.96 C 291.46 350.2 283.19 348.79 275.7 350.36 C 268.2 351.94 262.93 356.2 262.34 361.17 C 250.15 360.89 239.91 366.89 239.46 374.57 C 239.01 382.25 248.52 388.72 260.71 389 Z" fill="#fecd4d" stroke="none" pointer-events="all"/><path d="M 320.74 389 C 332.02 388.15 340.07 381.69 338.72 374.57 C 337.37 367.45 327.12 362.38 315.84 363.23 C 315.71 352.6 303.9 343.46 287.42 341.23 C 270.94 339 254.21 344.29 247.19 353.96 C 241.99 350.2 233.72 348.79 226.23 350.36 C 218.73 351.94 213.46 356.2 212.87 361.17 C 200.68 360.89 190.44 366.89 189.99 374.57 C 189.54 382.25 199.05 388.72 211.24 389 Z" fill="#fecd4d" stroke="none" pointer-events="all"/><path d="M 130.21 389 C 141.49 388.15 149.54 381.69 148.19 374.57 C 146.84 367.45 136.59 362.38 125.31 363.23 C 125.18 352.6 113.37 343.46 96.89 341.23 C 80.41 339 63.68 344.29 56.66 353.96 C 51.46 350.2 43.19 348.79 35.7 350.36 C 28.2 351.94 22.93 356.2 22.34 361.17 C 10.15 360.89 -0.09 366.89 -0.54 374.57 C -0.99 382.25 8.52 388.72 20.71 389 Z" fill="#fecd4d" stroke="none" pointer-events="all"/><path d="M 184.21 359 C 195.49 358.15 203.54 351.69 202.19 344.57 C 200.84 337.45 190.59 332.38 179.31 333.23 C 179.18 322.6 167.37 313.46 150.89 311.23 C 134.41 309 117.68 314.29 110.66 323.96 C 105.46 320.2 97.19 318.79 89.7 320.36 C 82.2 321.94 76.93 326.2 76.34 331.17 C 64.15 330.89 53.91 336.89 53.46 344.57 C 53.01 352.25 62.52 358.72 74.71 359 Z" fill="#fecd4d" stroke="none" pointer-events="all"/><path d="M 229.68 170 C 240.96 168.98 249.01 161.22 247.66 152.68 C 246.31 144.15 236.06 138.05 224.78 139.08 C 224.65 126.32 212.84 115.35 196.36 112.67 C 179.88 110 163.15 116.35 156.13 127.95 C 150.93 123.44 142.66 121.74 135.17 123.64 C 127.67 125.53 122.4 130.64 121.81 136.6 C 109.62 136.26 99.38 143.46 98.93 152.68 C 98.48 161.91 107.99 169.66 120.18 170 Z" fill="#cf2b03" stroke="none" transform="translate(173.74,0)scale(-1,1)translate(-173.74,0)" pointer-events="all"/><path d="M 140.21 170 C 151.49 168.98 159.54 161.22 158.19 152.68 C 156.84 144.15 146.59 138.05 135.31 139.08 C 135.18 126.32 123.37 115.35 106.89 112.67 C 90.41 110 73.68 116.35 66.66 127.95 C 61.46 123.44 53.19 121.74 45.7 123.64 C 38.2 125.53 32.93 130.64 32.34 136.6 C 20.15 136.26 9.91 143.46 9.46 152.68 C 9.01 161.91 18.52 169.66 30.71 170 Z" fill="#cf2b03" stroke="none" transform="translate(84.27,0)scale(-1,1)translate(-84.27,0)" pointer-events="all"/><path d="M 194.21 389 C 205.49 388.32 213.54 383.15 212.19 377.46 C 210.84 371.76 200.59 367.7 189.31 368.39 C 189.18 359.88 177.37 352.56 160.89 350.78 C 144.41 349 127.68 353.23 120.66 360.96 C 115.46 357.96 107.19 356.83 99.7 358.09 C 92.2 359.35 86.93 362.76 86.34 366.74 C 74.15 366.51 63.91 371.31 63.46 377.46 C 63.01 383.6 72.52 388.77 84.71 389 Z" fill="#cf2b03" stroke="none" transform="translate(138.27,0)scale(-1,1)translate(-138.27,0)" pointer-events="all"/><path d="M 303.74 389 C 315.02 388.32 323.07 383.15 321.72 377.46 C 320.37 371.76 310.12 367.7 298.84 368.39 C 298.71 359.88 286.9 352.56 270.42 350.78 C 253.94 349 237.21 353.23 230.19 360.96 C 224.99 357.96 216.72 356.83 209.23 358.09 C 201.73 359.35 196.46 362.76 195.87 366.74 C 183.68 366.51 173.44 371.31 172.99 377.46 C 172.54 383.6 182.05 388.77 194.24 389 Z" fill="#cf2b03" stroke="none" pointer-events="all"/><path d="M 350.74 389 C 362.02 388.32 370.07 383.15 368.72 377.46 C 367.37 371.76 357.12 367.7 345.84 368.39 C 345.71 359.88 333.9 352.56 317.42 350.78 C 300.94 349 284.21 353.23 277.19 360.96 C 271.99 357.96 263.72 356.83 256.23 358.09 C 248.73 359.35 243.46 362.76 242.87 366.74 C 230.68 366.51 220.44 371.31 219.99 377.46 C 219.54 383.6 229.05 388.77 241.24 389 Z" fill="#cf2b03" stroke="none" pointer-events="all"/><path d="M 280.74 369 C 292.02 368.32 300.07 363.15 298.72 357.46 C 297.37 351.76 287.12 347.7 275.84 348.39 C 275.71 339.88 263.9 332.56 247.42 330.78 C 230.94 329 214.21 333.23 207.19 340.96 C 201.99 337.96 193.72 336.83 186.23 338.09 C 178.73 339.35 173.46 342.76 172.87 346.74 C 160.68 346.51 150.44 351.31 149.99 357.46 C 149.54 363.6 159.05 368.77 171.24 369 Z" fill="#cf2b03" stroke="none" pointer-events="all"/><path d="M 149.68 389 C 160.96 388.32 169.01 383.15 167.66 377.46 C 166.31 371.76 156.06 367.7 144.78 368.39 C 144.65 359.88 132.84 352.56 116.36 350.78 C 99.88 349 83.15 353.23 76.13 360.96 C 70.93 357.96 62.66 356.83 55.17 358.09 C 47.67 359.35 42.4 362.76 41.81 366.74 C 29.62 366.51 19.38 371.31 18.93 377.46 C 18.48 383.6 27.99 388.77 40.18 389 Z" fill="#cf2b03" stroke="none" pointer-events="all"/><path d="M 210.21 359 C 221.49 358.32 229.54 353.15 228.19 347.46 C 226.84 341.76 216.59 337.7 205.31 338.39 C 205.18 329.88 193.37 322.56 176.89 320.78 C 160.41 319 143.68 323.23 136.66 330.96 C 131.46 327.96 123.19 326.83 115.7 328.09 C 108.2 329.35 102.93 332.76 102.34 336.74 C 90.15 336.51 79.91 341.31 79.46 347.46 C 79.01 353.6 88.52 358.77 100.71 359 Z" fill="#cf2b03" stroke="none" pointer-events="all"/><path d="M 209.68 389 C 220.96 388.32 229.01 383.15 227.66 377.46 C 226.31 371.76 216.06 367.7 204.78 368.39 C 204.65 359.88 192.84 352.56 176.36 350.78 C 159.88 349 143.15 353.23 136.13 360.96 C 130.93 357.96 122.66 356.83 115.17 358.09 C 107.67 359.35 102.4 362.76 101.81 366.74 C 89.62 366.51 79.38 371.31 78.93 377.46 C 78.48 383.6 87.99 388.77 100.18 389 Z" fill="#881201" stroke="none" transform="translate(153.74,0)scale(-1,1)translate(-153.74,0)" pointer-events="all"/><path d="M 293.74 389 C 305.02 388.32 313.07 383.15 311.72 377.46 C 310.37 371.76 300.12 367.7 288.84 368.39 C 288.71 359.88 276.9 352.56 260.42 350.78 C 243.94 349 227.21 353.23 220.19 360.96 C 214.99 357.96 206.72 356.83 199.23 358.09 C 191.73 359.35 186.46 362.76 185.87 366.74 C 173.68 366.51 163.44 371.31 162.99 377.46 C 162.54 383.6 172.05 388.77 184.24 389 Z" fill="#881201" stroke="none" pointer-events="all"/><path d="M 344.74 170 C 356.02 169.3 364.07 164 362.72 158.17 C 361.37 152.33 351.12 148.17 339.84 148.87 C 339.71 140.15 327.9 132.65 311.42 130.83 C 294.94 129 278.21 133.34 271.19 141.26 C 265.99 138.19 257.72 137.03 250.23 138.32 C 242.73 139.61 237.46 143.1 236.87 147.18 C 224.68 146.95 214.44 151.87 213.99 158.17 C 213.54 164.47 223.05 169.77 235.24 170 Z" fill="#cf2b03" stroke="none" transform="translate(288.8,0)scale(-1,1)translate(-288.8,0)" pointer-events="all"/><path d="M 290.74 149 C 302.02 147.98 310.07 140.22 308.72 131.68 C 307.37 123.15 297.12 117.05 285.84 118.08 C 285.71 105.32 273.9 94.35 257.42 91.67 C 240.94 89 224.21 95.35 217.19 106.95 C 211.99 102.44 203.72 100.74 196.23 102.64 C 188.73 104.53 183.46 109.64 182.87 115.6 C 170.68 115.26 160.44 122.46 159.99 131.68 C 159.54 140.91 169.05 148.66 181.24 149 Z" fill="#cf2b03" stroke="none" transform="translate(234.8,0)scale(-1,1)translate(-234.8,0)" pointer-events="all"/><path d="M 210.21 139 C 221.49 137.98 229.54 130.22 228.19 121.68 C 226.84 113.15 216.59 107.05 205.31 108.08 C 205.18 95.32 193.37 84.35 176.89 81.67 C 160.41 79 143.68 85.35 136.66 96.95 C 131.46 92.44 123.19 90.74 115.7 92.64 C 108.2 94.53 102.93 99.64 102.34 105.6 C 90.15 105.26 79.91 112.46 79.46 121.68 C 79.01 130.91 88.52 138.66 100.71 139 Z" fill="#cf2b03" stroke="none" transform="translate(154.26,0)scale(-1,1)translate(-154.26,0)" pointer-events="all"/><path d="M 244.21 109 C 255.49 107.98 263.54 100.22 262.19 91.68 C 260.84 83.15 250.59 77.05 239.31 78.08 C 239.18 65.32 227.37 54.35 210.89 51.67 C 194.41 49 177.68 55.35 170.66 66.95 C 165.46 62.44 157.19 60.74 149.7 62.64 C 142.2 64.53 136.93 69.64 136.34 75.6 C 124.15 75.26 113.91 82.46 113.46 91.68 C 113.01 100.91 122.52 108.66 134.71 109 Z" fill="#cf2b03" stroke="none" pointer-events="all"/><path d="M 258.05 171 C 270.28 170.09 279.01 163.25 277.55 155.7 C 276.08 148.16 264.97 142.78 252.73 143.69 C 252.59 132.42 239.78 122.72 221.9 120.36 C 204.03 118 185.89 123.61 178.28 133.85 C 172.64 129.88 163.67 128.37 155.54 130.05 C 147.41 131.72 141.7 136.23 141.05 141.5 C 127.84 141.2 116.73 147.56 116.24 155.7 C 115.75 163.85 126.06 170.7 139.28 171 Z" fill="#881201" stroke="none" transform="translate(197.37,0)scale(-1,1)translate(-197.37,0)" pointer-events="all"/><path d="M 194.21 171 C 205.49 170.27 213.54 164.71 212.19 158.59 C 210.84 152.47 200.59 148.11 189.31 148.84 C 189.18 139.7 177.37 131.83 160.89 129.92 C 144.41 128 127.68 132.55 120.66 140.86 C 115.46 137.63 107.19 136.42 99.7 137.77 C 92.2 139.13 86.93 142.79 86.34 147.07 C 74.15 146.82 63.91 151.98 63.46 158.59 C 63.01 165.2 72.52 170.76 84.71 171 Z" fill="#881201" stroke="none" transform="translate(138.27,0)scale(-1,1)translate(-138.27,0)" pointer-events="all"/><path d="M 293.15 171 C 302.41 170.45 309.01 166.32 307.9 161.76 C 306.79 157.21 298.39 153.96 289.13 154.51 C 289.03 147.71 279.34 141.85 265.82 140.43 C 252.3 139 238.59 142.39 232.83 148.57 C 228.56 146.17 221.78 145.26 215.63 146.27 C 209.48 147.28 205.16 150.01 204.67 153.19 C 194.68 153.01 186.28 156.85 185.91 161.76 C 185.54 166.68 193.34 170.82 203.33 171 Z" fill="#881201" stroke="none" transform="translate(247.26,0)scale(-1,1)translate(-247.26,0)" pointer-events="all"/><path d="M 221.84 149 C 228.06 147.98 232.5 140.22 231.75 131.68 C 231 123.15 225.36 117.05 219.13 118.08 C 219.07 105.32 212.55 94.35 203.46 91.67 C 194.38 89 185.16 95.35 181.28 106.95 C 178.42 102.44 173.86 100.74 169.72 102.64 C 165.59 104.53 162.69 109.64 162.36 115.6 C 155.64 115.26 149.99 122.46 149.74 131.68 C 149.49 140.91 154.74 148.66 161.46 149 Z" fill="#881201" stroke="none" pointer-events="all"/></g></svg>