<?xml version="1.0" encoding="UTF-8"?>
<!DOCTYPE svg PUBLIC "-//W3C//DTD SVG 1.1//EN" "http://www.w3.org/Graphics/SVG/1.1/DTD/svg11.dtd">
<svg xmlns="http://www.w3.org/2000/svg" xmlns:xlink="http://www.w3.org/1999/xlink" version="1.1" width="481px" height="564px" viewBox="-0.5 -0.5 481 564"><defs/><g><rect x="0" y="80" width="480" height="480" fill="none" stroke="none" pointer-events="all"/><rect x="0" y="0" width="480" height="80" fill="none" stroke="none" pointer-events="all"/><path d="M 240 403 L 286.35 475.52 C 292 484.37 295 494.64 295 505.14 C 295 519.73 289.21 533.72 278.89 544.03 C 268.58 554.35 254.59 560.14 240 560.14 C 225.41 560.14 211.42 554.35 201.11 544.03 C 190.79 533.72 185 519.73 185 505.14 C 185 494.64 188 484.37 193.65 475.52 Z" fill="#c46282" stroke="none" transform="rotate(-180,240,481.57)" pointer-events="all"/><path d="M 145.5 422 L 183 480.68 C 187.57 487.83 190 496.15 190 504.64 C 190 529.22 170.08 549.14 145.5 549.14 C 120.92 549.14 101 529.22 101 504.64 C 101 496.15 103.43 487.83 108 480.68 Z" fill="#c46282" stroke="none" transform="rotate(-145,145.5,485.57)" pointer-events="all"/><path d="M 332.5 422 L 370 480.68 C 374.57 487.83 377 496.15 377 504.64 C 377 529.22 357.08 549.14 332.5 549.14 C 307.92 549.14 288 529.22 288 504.64 C 288 496.15 290.43 487.83 295 480.68 Z" fill="#c46282" stroke="none" transform="rotate(145,332.5,485.57)" pointer-events="all"/><path d="M 140.39 131.22 Q 338.61 131.22 338.61 371.22 Q 338.61 611.22 140.39 611.22 Q 239.5 371.22 140.39 131.22 Z" fill="#edf4e0" stroke="none" transform="rotate(-90,239.5,371.22)" pointer-events="all"/><ellipse cx="239.5" cy="333.5" rx="120.5" ry="120.5" fill="#edf4e0" stroke="none" pointer-events="all"/><path d="M 227 390.61 L 227 378 Q 227 368 234.55 374.56 L 245.45 384.05 Q 253 390.61 245.45 397.17 L 234.55 406.66 Q 227 413.22 227 403.22 Z" fill="#c46282" stroke="none" transform="rotate(90,240,390.61)" pointer-events="all"/><path d="M 239.24 412.18 C 237.26 420.05 231.73 425.53 225.33 425.97 C 218.93 426.41 212.98 421.73 210.36 414.18" fill="none" stroke="rgb(0, 0, 0)" stroke-width="3" stroke-miterlimit="10" pointer-events="all"/><path d="M 269.24 412.18 C 267.26 420.05 261.73 425.53 255.33 425.97 C 248.93 426.41 242.98 421.73 240.36 414.18" fill="none" stroke="rgb(0, 0, 0)" stroke-width="3" stroke-miterlimit="10" transform="translate(254.5,0)scale(-1,1)translate(-254.5,0)" pointer-events="all"/><path d="M 48.23 254 L 93.08 158.33 L 191.91 158.33 L 236.76 254 Z" fill="#27321a" stroke="none" transform="rotate(-45,142.49,206.16)" pointer-events="all"/><path d="M 201.42 210.15 L 277.42 340.65 L 201.42 471.15 Z" fill="#27321a" stroke="none" transform="rotate(90,239.42,340.65)" pointer-events="all"/><path d="M 173.42 109.14 L 305.42 239.14 L 173.42 369.14 Z" fill="#27321a" stroke="none" transform="rotate(-90,239.42,239.14)" pointer-events="all"/><path d="M 37.41 182.13 L 65.21 119.41 L 108.61 119.41 L 136.41 182.13 Z" fill="#27321a" stroke="none" transform="rotate(-45,86.91,150.77)" pointer-events="all"/><path d="M 27.05 139.09 L 51.05 91.09 L 51.05 91.09 L 75.05 139.09 Z" fill="#27321a" stroke="none" transform="rotate(-45,51.05,115.09)" pointer-events="all"/><path d="M 58.23 264 L 103.08 168.33 L 201.91 168.33 L 246.76 264 Z" fill="#27321a" stroke="none" transform="rotate(-45,152.49,216.16)" pointer-events="all"/><path d="M 47.41 192.13 L 75.21 129.41 L 118.61 129.41 L 146.41 192.13 Z" fill="#27321a" stroke="none" transform="rotate(-45,96.91,160.77)" pointer-events="all"/><path d="M 37.05 149.09 L 61.05 101.09 L 61.05 101.09 L 85.05 149.09 Z" fill="#27321a" stroke="none" transform="rotate(-45,61.05,125.09)" pointer-events="all"/><path d="M 242 254.67 L 286.85 159 L 385.68 159 L 430.53 254.67 Z" fill="#27321a" stroke="none" transform="rotate(45,336.26,206.83)" pointer-events="none"/><path d="M 342 182.72 L 369.8 120 L 413.2 120 L 441 182.72 Z" fill="#27321a" stroke="none" transform="rotate(45,391.5,151.36)" pointer-events="none"/><path d="M 403 140 L 427 92 L 427 92 L 451 140 Z" fill="#27321a" stroke="none" transform="rotate(45,427,116)" pointer-events="none"/><path d="M 37 430.23 L 143.29 297.23 L 233.84 430.23 Z" fill="#27321a" stroke="none" transform="rotate(-30,135.42,363.73)" pointer-events="none"/><path d="M 245.57 430.49 L 351.86 297.49 L 442.41 430.49 Z" fill="#27321a" stroke="none" transform="translate(343.99,0)scale(-1,1)translate(-343.99,0)rotate(-30,343.99,363.99)" pointer-events="none"/><path d="M 181.5 300 L 203 347.5 L 181.5 395 L 160 347.5 Z" fill="#417640" stroke="none" pointer-events="none"/><path d="M 300.5 300 L 322 347.5 L 300.5 395 L 279 347.5 Z" fill="#417640" stroke="none" pointer-events="none"/><path d="M 240.5 230 L 262 277.5 L 240.5 325 L 219 277.5 Z" fill="#417640" stroke="none" pointer-events="none"/><path d="M 174.5 328 Q 188.5 328 188.5 356 Q 188.5 384 174.5 384 Z" fill="rgb(255, 255, 255)" stroke="#ffffff" stroke-width="2" stroke-miterlimit="10" transform="rotate(90,181.5,356)" pointer-events="none"/><path d="M 174.31 338.69 Q 189.31 338.69 189.31 355.69 Q 189.31 372.69 174.31 372.69 Z" fill="#c46282" stroke="none" transform="rotate(90,181.81,355.69)" pointer-events="none"/><ellipse cx="181.5" cy="356" rx="2" ry="5" fill="#000000" stroke="none" pointer-events="none"/><path d="M 174.5 328 Q 188.5 328 188.5 356 Q 188.5 384 174.5 384 Z" fill="none" stroke="#ffffff" stroke-width="2" stroke-miterlimit="10" transform="rotate(90,181.5,356)" pointer-events="none"/><path d="M 294 328 Q 308 328 308 356 Q 308 384 294 384 Z" fill="rgb(255, 255, 255)" stroke="#ffffff" stroke-width="2" stroke-miterlimit="10" transform="rotate(90,301,356)" pointer-events="none"/><path d="M 293.81 338.69 Q 308.81 338.69 308.81 355.69 Q 308.81 372.69 293.81 372.69 Z" fill="#c46282" stroke="none" transform="rotate(90,301.31,355.69)" pointer-events="none"/><ellipse cx="301" cy="356" rx="2" ry="5" fill="#000000" stroke="none" pointer-events="none"/><path d="M 294 328 Q 308 328 308 356 Q 308 384 294 384 Z" fill="none" stroke="#ffffff" stroke-width="2" stroke-miterlimit="10" transform="rotate(90,301,356)" pointer-events="none"/><ellipse cx="240.64" cy="99" rx="50" ry="50" fill="#437840" stroke="none" pointer-events="none"/><ellipse cx="240.64" cy="76" rx="20" ry="20" fill="#c46282" stroke="none" pointer-events="none"/><ellipse cx="240.37" cy="42" rx="22" ry="16" fill="#c46282" stroke="none" transform="rotate(90,240.37,42)" pointer-events="none"/><ellipse cx="271.87" cy="64.9" rx="22" ry="16" fill="#c46282" stroke="none" transform="rotate(162,271.87,64.9)" pointer-events="none"/><ellipse cx="259.87" cy="101" rx="22" ry="16" fill="#c46282" stroke="none" transform="rotate(234,259.87,101)" pointer-events="none"/><ellipse cx="220.87" cy="100.9" rx="22" ry="16" fill="#c46282" stroke="none" transform="rotate(306,220.87,100.9)" pointer-events="none"/><ellipse cx="208.87" cy="65" rx="22" ry="16" fill="#c46282" stroke="none" transform="rotate(18,208.87,65)" pointer-events="none"/><ellipse cx="240.92" cy="74.55" rx="12.55" ry="12.55" fill="#944a62" stroke="none" pointer-events="none"/></g></svg>