<?xml version="1.0" encoding="UTF-8"?>
<!DOCTYPE svg PUBLIC "-//W3C//DTD SVG 1.1//EN" "http://www.w3.org/Graphics/SVG/1.1/DTD/svg11.dtd">
<svg xmlns="http://www.w3.org/2000/svg" xmlns:xlink="http://www.w3.org/1999/xlink" version="1.1" width="481px" height="560px" viewBox="-0.5 -0.5 481 560"><defs><style type="text/css">@import url(https://fonts.googleapis.com/css?family=Architects+Daughter);&#xa;</style></defs><g><rect x="0" y="80" width="480" height="480" fill="none" stroke="none" pointer-events="all"/><rect x="0" y="0" width="480" height="80" fill="none" stroke="none" pointer-events="all"/><path d="M 60 120 C 60 180.75 140.59 230 240 230 C 339.41 230 420 180.75 420 120 Z" fill="#f2cfa8" stroke="#4d332d" stroke-width="2" stroke-miterlimit="10" transform="rotate(-180,240,175)" pointer-events="all"/><ellipse cx="240" cy="338.5" rx="155" ry="145.5" fill="#ffe9d5" stroke="none" pointer-events="all"/><path d="M 241.03 432 C 241.03 443.04 231.75 452.77 218.19 455.94 C 204.63 459.12 190.01 454.98 182.21 445.77 C 174.42 436.56 175.29 424.45 184.36 415.98" fill="none" stroke="#4d332d" stroke-width="3" stroke-miterlimit="10" transform="rotate(15,208.97,432)" pointer-events="all"/><path d="M 302.15 432 C 302.15 443.04 292.87 452.77 279.31 455.94 C 265.75 459.12 251.13 454.98 243.33 445.77 C 235.54 436.56 236.41 424.45 245.48 415.98" fill="none" stroke="#4d332d" stroke-width="3" stroke-miterlimit="10" transform="translate(270.09,0)scale(-1,1)translate(-270.09,0)rotate(-345,270.09,432)" pointer-events="all"/><path d="M -32.01 279.5 C -32.01 310.96 10.44 336.47 62.8 336.47 C 115.15 336.47 157.6 310.96 157.6 279.5 Z" fill="#f2cfa8" stroke="#4d332d" stroke-width="2" stroke-miterlimit="10" transform="rotate(287,62.79,307.98)" pointer-events="all"/><path d="M 61.83 267.84 C 21.83 314.76 21.83 385.74 61.83 432.66 C 101.83 385.74 101.83 314.76 61.83 267.84 Z" fill="#f2cfa8" stroke="#4d332d" stroke-width="2" stroke-miterlimit="10" transform="rotate(15,61.84,350.25)" pointer-events="all"/><path d="M 60.99 258.72 C 20.99 305.64 20.99 376.62 60.99 423.54 C 100.99 376.62 100.99 305.64 60.99 258.72 Z" fill="#f2cfa8" stroke="none" transform="rotate(15,61,341.13)" pointer-events="all"/><path d="M 42.57 222.53 C 42.57 253.99 59.94 279.5 81.37 279.5 C 102.8 279.5 120.17 253.99 120.17 222.53 Z" fill="#f2cfa8" stroke="none" transform="rotate(287,81.37,251.01)" pointer-events="all"/><path d="M -32.44 297.13 C -32.44 330.27 23.03 357.13 91.45 357.13 C 159.87 357.13 215.34 330.27 215.34 297.13 Z" fill="#f2cfa8" stroke="#4d332d" stroke-width="2" stroke-miterlimit="10" transform="rotate(100,91.45,327.13)" pointer-events="all"/><path d="M 322 279.5 C 322 310.96 364.45 336.47 416.81 336.47 C 469.16 336.47 511.61 310.96 511.61 279.5 Z" fill="#f2cfa8" stroke="#4d332d" stroke-width="2" stroke-miterlimit="10" transform="rotate(73,416.81,307.98)" pointer-events="all"/><path d="M 418.99 267.84 C 378.99 314.76 378.99 385.74 418.99 432.66 C 458.99 385.74 458.99 314.76 418.99 267.84 Z" fill="#f2cfa8" stroke="#4d332d" stroke-width="2" stroke-miterlimit="10" transform="rotate(345,419,350.25)" pointer-events="all"/><path d="M 419.99 258.72 C 379.99 305.64 379.99 376.62 419.99 423.54 C 459.99 376.62 459.99 305.64 419.99 258.72 Z" fill="#f2cfa8" stroke="none" transform="translate(0,341.13)scale(1,-1)translate(0,-341.13)rotate(-345,420,341.13)" pointer-events="all"/><path d="M 359 220.53 C 359 251.99 376.37 277.5 397.8 277.5 C 419.23 277.5 436.6 251.99 436.6 220.53 Z" fill="#f2cfa8" stroke="none" transform="translate(397.8,0)scale(-1,1)translate(-397.8,0)rotate(-73,397.8,249.01)" pointer-events="all"/><path d="M 265.82 297.13 C 265.82 330.27 321.29 357.13 389.71 357.13 C 458.13 357.13 513.6 330.27 513.6 297.13 Z" fill="#f2cfa8" stroke="#4d332d" stroke-width="2" stroke-miterlimit="10" transform="translate(389.71,0)scale(-1,1)translate(-389.71,0)rotate(-260,389.71,327.13)" pointer-events="all"/><path d="M 39.07 205.32 C 39.07 239.56 68.84 267.32 105.57 267.32 C 142.3 267.32 172.07 239.56 172.07 205.32 Z" fill="#f2cfa8" stroke="none" transform="rotate(100,105.57,236.32)" pointer-events="all"/><path d="M 309 205.5 C 309 239.74 338.77 267.5 375.5 267.5 C 412.23 267.5 442 239.74 442 205.5 Z" fill="#f2cfa8" stroke="none" transform="rotate(260,375.5,236.5)" pointer-events="all"/><path d="M 25 95.23 C 25 163.27 56.06 218.43 94.39 218.43 C 132.71 218.43 163.77 163.27 163.77 95.23 Z" fill="#f2cfa8" stroke="#4d332d" stroke-width="2" stroke-miterlimit="10" transform="rotate(145,94.39,156.83)" pointer-events="all"/><path d="M 59.68 193.02 C 59.68 221.73 72.79 245 88.95 245 C 105.12 245 118.23 221.73 118.23 193.02 Z" fill="#f2cfa8" stroke="none" transform="rotate(145,88.95,219.01)" pointer-events="all"/><path d="M 316 95.23 C 316 163.27 347.06 218.43 385.39 218.43 C 423.71 218.43 454.77 163.27 454.77 95.23 Z" fill="#f2cfa8" stroke="#4d332d" stroke-width="2" stroke-miterlimit="10" transform="rotate(215,385.39,156.83)" pointer-events="all"/><path d="M 361 193.02 C 361 221.73 374.11 245 390.28 245 C 406.44 245 419.55 221.73 419.55 193.02 Z" fill="#f2cfa8" stroke="none" transform="rotate(215,390.28,219.01)" pointer-events="all"/><path d="M 351.8 155.82 C 323.62 196.5 323.62 258.02 351.8 298.7 C 379.99 258.02 379.99 196.5 351.8 155.82 Z" fill="#f2cfa8" stroke="#4d332d" stroke-width="2" stroke-miterlimit="10" transform="rotate(333,351.81,227.26)" pointer-events="all"/><path d="M 315.78 144.1 C 275.99 195.29 275.99 272.7 315.78 323.89 C 355.57 272.7 355.57 195.29 315.78 144.1 Z" fill="#f2cfa8" stroke="#4d332d" stroke-width="2" stroke-miterlimit="10" transform="rotate(339,315.79,233.99)" pointer-events="all"/><path d="M 261.02 137.26 C 232.02 188.51 232.02 266.01 261.02 317.26 C 290.02 266.01 290.02 188.51 261.02 137.26 Z" fill="#f2cfa8" stroke="#4d332d" stroke-width="2" stroke-miterlimit="10" transform="rotate(-15,261.03,227.26)" pointer-events="all"/><path d="M 128.37 152.01 C 101.38 197.26 101.38 265.7 128.37 310.95 C 155.37 265.7 155.37 197.26 128.37 152.01 Z" fill="#f2cfa8" stroke="#4d332d" stroke-width="2" stroke-miterlimit="10" transform="rotate(27,128.38,231.48)" pointer-events="all"/><path d="M 161.82 161.64 C 123.28 209.67 123.28 282.32 161.82 330.35 C 200.36 282.32 200.36 209.67 161.82 161.64 Z" fill="#f2cfa8" stroke="#4d332d" stroke-width="2" stroke-miterlimit="10" transform="rotate(22,161.83,245.99)" pointer-events="all"/><path d="M 232.99 134 C 182.99 190.94 182.99 277.06 232.99 334 C 282.99 277.06 282.99 190.94 232.99 134 Z" fill="#f2cfa8" stroke="#4d332d" stroke-width="2" stroke-miterlimit="10" pointer-events="all"/><path d="M 136 138.09 C 136 166.76 183.01 190 241 190 C 298.99 190 346 166.76 346 138.09 Z" fill="#f2cfa8" stroke="none" transform="rotate(-180,241,164.04)" pointer-events="all"/><path d="M 253.43 124.62 C 226.92 175.87 226.92 253.37 253.43 304.62 C 279.94 253.37 279.94 175.87 253.43 124.62 Z" fill="#f2cfa8" stroke="none" transform="rotate(-15,253.43,214.62)" pointer-events="all"/><path d="M 141.37 138.01 C 114.38 183.26 114.38 251.7 141.37 296.95 C 168.37 251.7 168.37 183.26 141.37 138.01 Z" fill="#f2cfa8" stroke="none" transform="rotate(27,141.38,217.48)" pointer-events="all"/><path d="M 339.18 143.04 C 311 183.72 311 245.24 339.18 285.92 C 367.37 245.24 367.37 183.72 339.18 143.04 Z" fill="#f2cfa8" stroke="none" transform="rotate(333,339.19,214.48)" pointer-events="all"/><path d="M 173.48 144.1 C 173.48 178.29 185.44 206.01 200.2 206.01 C 214.96 206.01 226.92 178.29 226.92 144.1 Z" fill="#f2cfa8" stroke="none" transform="rotate(-180,200.2,175.05)" pointer-events="all"/><path d="M 260 152.01 C 260 186.2 271.96 213.92 286.72 213.92 C 301.48 213.92 313.44 186.2 313.44 152.01 Z" fill="#f2cfa8" stroke="none" transform="rotate(-180,286.72,182.97)" pointer-events="all"/><path d="M 116 90 C 91 118.47 91 161.53 116 190 C 140.99 161.53 140.99 118.47 116 90 Z" fill="rgb(255, 255, 255)" stroke="none" transform="rotate(-60,116,140)" pointer-events="all"/><path d="M 109 115 C 84 143.47 84 186.53 109 215 C 133.99 186.53 133.99 143.47 109 115 Z" fill="rgb(255, 255, 255)" stroke="none" transform="rotate(90,109,165)" pointer-events="all"/><path d="M 116 140 C 91 168.47 91 211.53 116 240 C 140.99 211.53 140.99 168.47 116 140 Z" fill="rgb(255, 255, 255)" stroke="none" transform="translate(0,190)scale(1,-1)translate(0,-190)rotate(-240,116,190)" pointer-events="all"/><path d="M 365 90 C 340 118.47 340 161.53 365 190 C 389.99 161.53 389.99 118.47 365 90 Z" fill="rgb(255, 255, 255)" stroke="none" transform="rotate(60,365,140)" pointer-events="all"/><path d="M 372 115 C 347 143.47 347 186.53 372 215 C 396.99 186.53 396.99 143.47 372 115 Z" fill="rgb(255, 255, 255)" stroke="none" transform="rotate(90,372,165)" pointer-events="all"/><path d="M 365 140 C 340 168.47 340 211.53 365 240 C 389.99 211.53 389.99 168.47 365 140 Z" fill="rgb(255, 255, 255)" stroke="none" transform="translate(0,190)scale(1,-1)translate(0,-190)rotate(-120,365,190)" pointer-events="all"/><path d="M 197.72 30 Q 239.52 30 239.52 81.38 Q 239.52 132.75 197.72 132.75 Q 218.62 81.38 197.72 30 Z" fill="#f2cfa8" stroke="#4d332d" stroke-width="2" stroke-miterlimit="10" transform="translate(218.62,0)scale(-1,1)translate(-218.62,0)" pointer-events="all"/><path d="M 253.07 46 Q 294.87 46 294.87 91.78 Q 294.87 137.56 253.07 137.56 Q 273.97 91.78 253.07 46 Z" fill="#f2cfa8" stroke="#4d332d" stroke-width="2" stroke-miterlimit="10" transform="translate(273.97,0)scale(-1,1)translate(-273.97,0)rotate(-60,273.97,91.78)" pointer-events="all"/><ellipse cx="161" cy="347" rx="75" ry="50" fill="rgb(255, 255, 255)" stroke="rgb(0, 0, 0)" stroke-width="2" pointer-events="all"/><ellipse cx="161.59" cy="346" rx="21.59" ry="47.5" fill="#a40000" stroke="none" pointer-events="all"/><ellipse cx="320" cy="347" rx="75" ry="50" fill="rgb(255, 255, 255)" stroke="rgb(0, 0, 0)" stroke-width="2" pointer-events="all"/><ellipse cx="321.59" cy="346" rx="21.59" ry="47.5" fill="#a40000" stroke="none" pointer-events="all"/></g></svg>