<?xml version="1.0" encoding="UTF-8"?>
<!DOCTYPE svg PUBLIC "-//W3C//DTD SVG 1.1//EN" "http://www.w3.org/Graphics/SVG/1.1/DTD/svg11.dtd">
<svg xmlns="http://www.w3.org/2000/svg" xmlns:xlink="http://www.w3.org/1999/xlink" version="1.1" width="480px" height="560px" viewBox="-0.5 -0.5 480 560"><defs><style type="text/css">@import url(https://fonts.googleapis.com/css?family=Architects+Daughter);&#xa;</style></defs><g><rect x="0" y="80" width="480" height="480" fill="none" stroke="none" pointer-events="all"/><path d="M 0 0 L 480 0 L 480 80 L 0 80 L 0 0 Z" fill="none" stroke="none" pointer-events="all"/><path d="M 5 5 L 5 75 L 5 75 L 475 75 L 475 5 L 5 5" fill="none" stroke="none" pointer-events="all"/><path d="M 0 0 L 480 0 L 480 80 L 0 80 L 0 0 Z" fill="none" stroke="none" pointer-events="all"/><path d="M 199.12 65 C 199.12 77.05 217.03 86.82 239.12 86.82 C 261.21 86.82 279.12 77.05 279.12 65 L 279.12 283.18 C 279.12 288.96 274.91 294.52 267.4 298.61 C 259.9 302.7 249.73 305 239.12 305 C 228.51 305 218.34 302.7 210.84 298.61 C 203.33 294.52 199.12 288.96 199.12 283.18 Z" fill="rgb(255, 255, 255)" stroke="#e6e6e6" stroke-width="4" stroke-miterlimit="10" pointer-events="none"/><path d="M 236.12 72 C 236.12 84.05 254.03 93.82 276.12 93.82 C 298.21 93.82 316.12 84.05 316.12 72 L 316.12 290.18 C 316.12 295.96 311.91 301.52 304.4 305.61 C 296.9 309.7 286.73 312 276.12 312 C 265.51 312 255.34 309.7 247.84 305.61 C 240.33 301.52 236.12 295.96 236.12 290.18 Z" fill="rgb(255, 255, 255)" stroke="#e6e6e6" stroke-width="4" stroke-miterlimit="10" transform="rotate(20,276.12,192)" pointer-events="none"/><path d="M 268.12 91 C 268.12 103.05 286.03 112.82 308.12 112.82 C 330.21 112.82 348.12 103.05 348.12 91 L 348.12 309.18 C 348.12 314.96 343.91 320.52 336.4 324.61 C 328.9 328.7 318.73 331 308.12 331 C 297.51 331 287.34 328.7 279.84 324.61 C 272.33 320.52 268.12 314.96 268.12 309.18 Z" fill="rgb(255, 255, 255)" stroke="#e6e6e6" stroke-width="4" stroke-miterlimit="10" transform="rotate(40,308.12,211)" pointer-events="none"/><path d="M 291.12 121 C 291.12 133.05 309.03 142.82 331.12 142.82 C 353.21 142.82 371.12 133.05 371.12 121 L 371.12 339.18 C 371.12 344.96 366.91 350.52 359.4 354.61 C 351.9 358.7 341.73 361 331.12 361 C 320.51 361 310.34 358.7 302.84 354.61 C 295.33 350.52 291.12 344.96 291.12 339.18 Z" fill="rgb(255, 255, 255)" stroke="#e6e6e6" stroke-width="4" stroke-miterlimit="10" transform="rotate(60,331.12,241)" pointer-events="none"/><path d="M 309.12 155 C 309.12 167.05 327.03 176.82 349.12 176.82 C 371.21 176.82 389.12 167.05 389.12 155 L 389.12 373.18 C 389.12 378.96 384.91 384.52 377.4 388.61 C 369.9 392.7 359.73 395 349.12 395 C 338.51 395 328.34 392.7 320.84 388.61 C 313.33 384.52 309.12 378.96 309.12 373.18 Z" fill="rgb(255, 255, 255)" stroke="#e6e6e6" stroke-width="4" stroke-miterlimit="10" transform="rotate(80,349.12,275)" pointer-events="none"/><path d="M 309.12 195 C 309.12 207.05 327.03 216.82 349.12 216.82 C 371.21 216.82 389.12 207.05 389.12 195 L 389.12 413.18 C 389.12 418.96 384.91 424.52 377.4 428.61 C 369.9 432.7 359.73 435 349.12 435 C 338.51 435 328.34 432.7 320.84 428.61 C 313.33 424.52 309.12 418.96 309.12 413.18 Z" fill="rgb(255, 255, 255)" stroke="#e6e6e6" stroke-width="4" stroke-miterlimit="10" transform="rotate(100,349.12,315)" pointer-events="none"/><path d="M 296.12 230 C 296.12 242.05 314.03 251.82 336.12 251.82 C 358.21 251.82 376.12 242.05 376.12 230 L 376.12 448.18 C 376.12 453.96 371.91 459.52 364.4 463.61 C 356.9 467.7 346.73 470 336.12 470 C 325.51 470 315.34 467.7 307.84 463.61 C 300.33 459.52 296.12 453.96 296.12 448.18 Z" fill="rgb(255, 255, 255)" stroke="#e6e6e6" stroke-width="4" stroke-miterlimit="10" transform="rotate(120,336.12,350)" pointer-events="none"/><path d="M 271.12 258 C 271.12 270.05 289.03 279.82 311.12 279.82 C 333.21 279.82 351.12 270.05 351.12 258 L 351.12 476.18 C 351.12 481.96 346.91 487.52 339.4 491.61 C 331.9 495.7 321.73 498 311.12 498 C 300.51 498 290.34 495.7 282.84 491.61 C 275.33 487.52 271.12 481.96 271.12 476.18 Z" fill="rgb(255, 255, 255)" stroke="#e6e6e6" stroke-width="4" stroke-miterlimit="10" transform="rotate(140,311.12,378)" pointer-events="none"/><path d="M 238.12 276 C 238.12 288.05 256.03 297.82 278.12 297.82 C 300.21 297.82 318.12 288.05 318.12 276 L 318.12 494.18 C 318.12 499.96 313.91 505.52 306.4 509.61 C 298.9 513.7 288.73 516 278.12 516 C 267.51 516 257.34 513.7 249.84 509.61 C 242.33 505.52 238.12 499.96 238.12 494.18 Z" fill="rgb(255, 255, 255)" stroke="#e6e6e6" stroke-width="4" stroke-miterlimit="10" transform="rotate(160,278.12,396)" pointer-events="none"/><path d="M 199.12 283 C 199.12 295.05 217.03 304.82 239.12 304.82 C 261.21 304.82 279.12 295.05 279.12 283 L 279.12 501.18 C 279.12 506.96 274.91 512.52 267.4 516.61 C 259.9 520.7 249.73 523 239.12 523 C 228.51 523 218.34 520.7 210.84 516.61 C 203.33 512.52 199.12 506.96 199.12 501.18 Z" fill="rgb(255, 255, 255)" stroke="#e6e6e6" stroke-width="4" stroke-miterlimit="10" transform="rotate(180,239.12,403)" pointer-events="none"/><path d="M 161.12 276 C 161.12 288.05 179.03 297.82 201.12 297.82 C 223.21 297.82 241.12 288.05 241.12 276 L 241.12 494.18 C 241.12 499.96 236.91 505.52 229.4 509.61 C 221.9 513.7 211.73 516 201.12 516 C 190.51 516 180.34 513.7 172.84 509.61 C 165.33 505.52 161.12 499.96 161.12 494.18 Z" fill="rgb(255, 255, 255)" stroke="#e6e6e6" stroke-width="4" stroke-miterlimit="10" transform="rotate(200,201.12,396)" pointer-events="none"/><path d="M 128.12 256 C 128.12 268.05 146.03 277.82 168.12 277.82 C 190.21 277.82 208.12 268.05 208.12 256 L 208.12 474.18 C 208.12 479.96 203.91 485.52 196.4 489.61 C 188.9 493.7 178.73 496 168.12 496 C 157.51 496 147.34 493.7 139.84 489.61 C 132.33 485.52 128.12 479.96 128.12 474.18 Z" fill="rgb(255, 255, 255)" stroke="#e6e6e6" stroke-width="4" stroke-miterlimit="10" transform="rotate(220,168.12,376)" pointer-events="none"/><path d="M 104.12 226 C 104.12 238.05 122.03 247.82 144.12 247.82 C 166.21 247.82 184.12 238.05 184.12 226 L 184.12 444.18 C 184.12 449.96 179.91 455.52 172.4 459.61 C 164.9 463.7 154.73 466 144.12 466 C 133.51 466 123.34 463.7 115.84 459.61 C 108.33 455.52 104.12 449.96 104.12 444.18 Z" fill="rgb(255, 255, 255)" stroke="#e6e6e6" stroke-width="4" stroke-miterlimit="10" transform="rotate(240,144.12,346)" pointer-events="none"/><path d="M 92.12 190 C 92.12 202.05 110.03 211.82 132.12 211.82 C 154.21 211.82 172.12 202.05 172.12 190 L 172.12 408.18 C 172.12 413.96 167.91 419.52 160.4 423.61 C 152.9 427.7 142.73 430 132.12 430 C 121.51 430 111.34 427.7 103.84 423.61 C 96.33 419.52 92.12 413.96 92.12 408.18 Z" fill="rgb(255, 255, 255)" stroke="#e6e6e6" stroke-width="4" stroke-miterlimit="10" transform="rotate(260,132.12,310)" pointer-events="none"/><path d="M 92.12 153 C 92.12 165.05 110.03 174.82 132.12 174.82 C 154.21 174.82 172.12 165.05 172.12 153 L 172.12 371.18 C 172.12 376.96 167.91 382.52 160.4 386.61 C 152.9 390.7 142.73 393 132.12 393 C 121.51 393 111.34 390.7 103.84 386.61 C 96.33 382.52 92.12 376.96 92.12 371.18 Z" fill="rgb(255, 255, 255)" stroke="#e6e6e6" stroke-width="4" stroke-miterlimit="10" transform="rotate(280,132.12,273)" pointer-events="none"/><path d="M 105.12 118 C 105.12 130.05 123.03 139.82 145.12 139.82 C 167.21 139.82 185.12 130.05 185.12 118 L 185.12 336.18 C 185.12 341.96 180.91 347.52 173.4 351.61 C 165.9 355.7 155.73 358 145.12 358 C 134.51 358 124.34 355.7 116.84 351.61 C 109.33 347.52 105.12 341.96 105.12 336.18 Z" fill="rgb(255, 255, 255)" stroke="#e6e6e6" stroke-width="4" stroke-miterlimit="10" transform="rotate(300,145.12,238)" pointer-events="none"/><path d="M 130.12 91 C 130.12 103.05 148.03 112.82 170.12 112.82 C 192.21 112.82 210.12 103.05 210.12 91 L 210.12 309.18 C 210.12 314.96 205.91 320.52 198.4 324.61 C 190.9 328.7 180.73 331 170.12 331 C 159.51 331 149.34 328.7 141.84 324.61 C 134.33 320.52 130.12 314.96 130.12 309.18 Z" fill="rgb(255, 255, 255)" stroke="#e6e6e6" stroke-width="4" stroke-miterlimit="10" transform="rotate(320,170.12,211)" pointer-events="none"/><path d="M 162.12 72 C 162.12 84.05 180.03 93.82 202.12 93.82 C 224.21 93.82 242.12 84.05 242.12 72 L 242.12 290.18 C 242.12 295.96 237.91 301.52 230.4 305.61 C 222.9 309.7 212.73 312 202.12 312 C 191.51 312 181.34 309.7 173.84 305.61 C 166.33 301.52 162.12 295.96 162.12 290.18 Z" fill="rgb(255, 255, 255)" stroke="#e6e6e6" stroke-width="4" stroke-miterlimit="10" transform="rotate(340,202.12,192)" pointer-events="none"/><rect x="197.12" y="66" width="4" height="240" fill="#e6e6e6" stroke="none" pointer-events="none"/><rect x="217.55" y="74.68" width="5" height="102" rx="2.5" ry="2.5" fill="#ffffff" stroke="none" transform="rotate(340,220.05,125.68)" pointer-events="none"/><path d="M 123.28 112.4 Q 149.79 112.4 149.79 235.27 Q 149.79 358.13 123.28 358.13 Z" fill="#00558a" stroke="none" transform="rotate(304,136.54,235.26)" pointer-events="none"/><path d="M 170.34 169.44 Q 310.45 169.44 310.45 272.44 Q 310.45 375.44 170.34 375.44 Z" fill="#00558a" stroke="none" transform="rotate(-90,240.39,272.44)" pointer-events="none"/><path d="M 330 112.4 Q 356.51 112.4 356.51 235.27 Q 356.51 358.13 330 358.13 Z" fill="#00558a" stroke="none" transform="translate(343.26,0)scale(-1,1)translate(-343.26,0)rotate(-56,343.26,235.26)" pointer-events="none"/><path d="M 83.6 318.83 L 13.36 218.83 L 306.04 318.83 Z" fill="#fff8b0" stroke="#d6d194" stroke-width="4" stroke-miterlimit="10" transform="rotate(15,159.7,268.83)" pointer-events="none"/><path d="M 69.34 361.48 L 69.34 267.97 L 256.17 361.48 Z" fill="#fff8b0" stroke="#d6d194" stroke-width="4" stroke-miterlimit="10" transform="rotate(-5,162.75,314.73)" pointer-events="none"/><path d="M 76.3 431.23 L 59.44 365.29 L 189.16 431.23 Z" fill="#fff8b0" stroke="#d6d194" stroke-width="4" stroke-miterlimit="10" transform="translate(0,398.26)scale(1,-1)translate(0,-398.26)rotate(5,124.3,398.26)" pointer-events="none"/><path d="M 244.24 318.65 L 174 218.65 L 466.68 318.65 Z" fill="#fff8b0" stroke="#d6d194" stroke-width="4" stroke-miterlimit="10" transform="translate(320.34,0)scale(-1,1)translate(-320.34,0)rotate(-345,320.34,268.65)" pointer-events="none"/><path d="M 222.98 361.65 L 222.98 268.14 L 409.81 361.65 Z" fill="#fff8b0" stroke="#d6d194" stroke-width="4" stroke-miterlimit="10" transform="translate(316.39,0)scale(-1,1)translate(-316.39,0)rotate(-5,316.39,314.89)" pointer-events="none"/><path d="M 306.94 431.4 L 290.08 365.46 L 419.8 431.4 Z" fill="#fff8b0" stroke="#d6d194" stroke-width="4" stroke-miterlimit="10" transform="rotate(185,354.94,398.43)" pointer-events="none"/><path d="M 190 293 Q 291 293 291 396 Q 291 499 190 499 Z" fill="#5dc1d0" stroke="none" transform="rotate(90,240.5,396)" pointer-events="none"/><path d="M 190 193 Q 291 193 291 296 Q 291 399 190 399 Z" fill="#5dc1d0" stroke="none" transform="rotate(-90,240.5,296)" pointer-events="none"/><ellipse cx="240" cy="369" rx="3" ry="3" fill="#000000" stroke="none" pointer-events="none"/><path d="M 240.02 386.34 C 238 394.74 233.06 401.28 226.8 403.84 C 220.54 406.4 213.75 404.67 208.61 399.2" fill="none" stroke="rgb(0, 0, 0)" stroke-width="3" stroke-miterlimit="10" pointer-events="none"/><path d="M 278.02 386.34 C 276 394.74 271.06 401.28 264.8 403.84 C 258.54 406.4 251.75 404.67 246.61 399.2" fill="none" stroke="rgb(0, 0, 0)" stroke-width="3" stroke-miterlimit="10" transform="translate(259,0)scale(-1,1)translate(-259,0)" pointer-events="none"/><path d="M 185 304 Q 204.34 304 204.34 334 Q 204.34 364 185 364 Z" fill="#000000" stroke="none" transform="rotate(-45,194.67,334)" pointer-events="none"/><path d="M 175.33 359 L 175.33 320 L 205 359 Z" fill="#000000" stroke="none" pointer-events="none"/><path d="M 161.02 315 Q 177.14 315 177.14 341 Q 177.14 367 161.02 367 Z" fill="#000000" stroke="none" transform="rotate(-180,169.08,341)" pointer-events="none"/><path d="M 180 335 Q 197.28 335 197.28 359.5 Q 197.28 384 180 384 Z" fill="#000000" stroke="none" transform="rotate(90,188.64,359.5)" pointer-events="none"/><ellipse cx="185.31" cy="341.98" rx="11.97" ry="7.98" fill="rgb(255, 255, 255)" stroke="none" transform="rotate(-90,185.31,341.98)" pointer-events="none"/><path d="M 278.3 355.5 L 278.3 316.5 L 307.97 355.5 Z" fill="#000000" stroke="none" transform="translate(293.13,0)scale(-1,1)translate(-293.13,0)" pointer-events="none"/><path d="M 305.38 315 Q 321.5 315 321.5 341 Q 321.5 367 305.38 367 Z" fill="#000000" stroke="none" transform="translate(313.44,0)scale(-1,1)translate(-313.44,0)rotate(180,313.44,341)" pointer-events="none"/><path d="M 278.38 304 Q 297.72 304 297.72 334 Q 297.72 364 278.38 364 Z" fill="#000000" stroke="none" transform="rotate(225,288.05,334)" pointer-events="none"/><path d="M 285.38 335 Q 302.66 335 302.66 359.5 Q 302.66 384 285.38 384 Z" fill="#000000" stroke="none" transform="rotate(90,294.02,359.5)" pointer-events="none"/><ellipse cx="296" cy="341.98" rx="11.97" ry="7.98" fill="rgb(255, 255, 255)" stroke="none" transform="rotate(-90,296,341.98)" pointer-events="none"/><path d="M 244.08 107.91 L 199.44 83.68 L 294.42 107.91 Z" fill="#fff8b0" stroke="#d6d194" stroke-width="4" stroke-miterlimit="10" transform="rotate(251,246.93,95.79)" pointer-events="none"/><path d="M 200.03 209.79 L 277.94 274.79 L 200.03 339.79 Z" fill="#00558a" stroke="none" transform="rotate(91,238.98,274.79)" pointer-events="none"/><path d="M 144.17 97.85 L 334.17 111.01 L 144.17 124.17 Z" fill="#00558a" stroke="none" transform="rotate(-90,239.17,111.01)" pointer-events="none"/><path d="M 169.7 190.53 C 144.98 209.77 133.64 261.24 144.4 305.49 C 155.15 349.74 183.91 370.01 208.64 350.77 C 189.25 344.79 172.85 321.74 165 289.46 C 157.16 257.17 158.92 219.98 169.7 190.53 Z" fill="#00558a" stroke="none" transform="translate(0,280.28)scale(1,-1)translate(0,-280.28)rotate(-20,171.14,280.28)" pointer-events="none"/><path d="M 309 190.53 C 284.28 209.77 272.94 261.24 283.7 305.49 C 294.45 349.74 323.21 370.01 347.94 350.77 C 328.55 344.79 312.15 321.74 304.3 289.46 C 296.46 257.17 298.22 219.98 309 190.53 Z" fill="#00558a" stroke="none" transform="rotate(520,310.44,280.28)" pointer-events="none"/></g></svg>