<?xml version="1.0" encoding="UTF-8"?>
<!DOCTYPE svg PUBLIC "-//W3C//DTD SVG 1.1//EN" "http://www.w3.org/Graphics/SVG/1.1/DTD/svg11.dtd">
<svg xmlns="http://www.w3.org/2000/svg" xmlns:xlink="http://www.w3.org/1999/xlink" version="1.1" width="120px" height="121px" viewBox="-0.5 -0.5 120 121"><defs><style type="text/css">@import url(https://fonts.googleapis.com/css?family=Architects+Daughter);&#xa;</style></defs><g><rect x="0" y="0" width="120" height="120" fill="none" stroke="none" pointer-events="all"/><rect x="20" y="33" width="8" height="50" rx="4" ry="4" fill="#b3b3b3" stroke="none" pointer-events="all"/><path d="M 20 11 C 20 25.36 37.91 37 60 37 C 82.09 37 100 25.36 100 11 Z" fill="#b3b3b3" stroke="none" transform="rotate(-180,60,24)" pointer-events="all"/><path d="M 24 67 C 24 58.72 30.72 52 39 52 C 42.98 52 46.79 53.58 49.61 56.39 C 52.42 59.21 54 63.02 54 67 C 54 70.98 52.42 74.79 49.61 77.61 C 46.79 80.42 42.98 82 39 82 C 30.72 82 24 75.28 24 67 Z M 39 56.44 C 33.17 56.44 28.44 61.17 28.44 67 C 28.44 72.83 33.17 77.56 39 77.56 C 44.83 77.56 49.56 72.83 49.56 67 C 49.56 61.17 44.83 56.44 39 56.44 Z" fill="#b3b3b3" stroke="none" pointer-events="all"/><rect x="92" y="33" width="8" height="50" rx="4" ry="4" fill="#b3b3b3" stroke="none" pointer-events="all"/><path d="M 65.5 67 C 65.5 58.72 72.22 52 80.5 52 C 84.48 52 88.29 53.58 91.11 56.39 C 93.92 59.21 95.5 63.02 95.5 67 C 95.5 70.98 93.92 74.79 91.11 77.61 C 88.29 80.42 84.48 82 80.5 82 C 72.22 82 65.5 75.28 65.5 67 Z M 80.5 56.44 C 74.67 56.44 69.94 61.17 69.94 67 C 69.94 72.83 74.67 77.56 80.5 77.56 C 86.33 77.56 91.06 72.83 91.06 67 C 91.06 61.17 86.33 56.44 80.5 56.44 Z" fill="#b3b3b3" stroke="none" pointer-events="all"/><path d="M 47.75 7.25 L 70.75 7.25 L 70.75 78.25 L 47.75 78.25 L 47.75 7.25 Z" fill="#b3b3b3" stroke="none" transform="rotate(90,59.25,42.75)" pointer-events="all"/><path d="M 47.75 7.25 L 47.75 78.25 L 47.75 78.25 L 70.75 78.25 L 70.75 7.25 L 47.75 7.25" fill="none" stroke="none" transform="rotate(90,59.25,42.75)" pointer-events="all"/><path d="M 47.75 7.25 L 70.75 7.25 L 70.75 78.25 L 47.75 78.25 L 47.75 7.25 Z" fill="none" stroke="none" transform="rotate(90,59.25,42.75)" pointer-events="all"/><path d="M 46.25 56.25 L 73.25 56.25 L 73.25 71.75 L 46.25 71.75 L 46.25 56.25 Z" fill="#b3b3b3" stroke="none" transform="rotate(90,59.75,64)" pointer-events="all"/><path d="M 46.25 56.25 L 46.25 71.75 L 46.25 71.75 L 73.25 71.75 L 73.25 56.25 L 46.25 56.25" fill="none" stroke="none" transform="rotate(90,59.75,64)" pointer-events="all"/><path d="M 46.25 56.25 L 73.25 56.25 L 73.25 71.75 L 46.25 71.75 L 46.25 56.25 Z" fill="none" stroke="none" transform="rotate(90,59.75,64)" pointer-events="all"/><path d="M 51.96 89 L 60 77.75 L 68.03 89 Z" fill="none" stroke="#b3b3b3" stroke-miterlimit="10" pointer-events="all"/><ellipse cx="27.5" cy="54.5" rx="4.5" ry="4.5" fill="#b3b3b3" stroke="none" pointer-events="all"/><ellipse cx="92" cy="53.75" rx="4.5" ry="4.5" fill="#b3b3b3" stroke="none" pointer-events="all"/><path d="M 65.42 64.61 L 65.42 52.61 L 77.39 64.61 Z" fill="#b3b3b3" stroke="none" transform="rotate(90,71.4,58.61)" pointer-events="all"/><path d="M 42.03 64 L 42.03 52 L 54 64 Z" fill="#b3b3b3" stroke="none" transform="translate(0,58)scale(1,-1)translate(0,-58)rotate(-90,48.01,58)" pointer-events="all"/><path d="M 19.29 78.25 L 19.87 78.25 Q 32 78.25 32 90.38 Q 32 102.5 19.87 102.5 L 19.29 102.5 Z" fill="#b3b3b3" stroke="none" transform="rotate(135,25.64,90.38)" pointer-events="all"/><path d="M 88.5 78.25 L 89.09 78.25 Q 101.21 78.25 101.21 90.38 Q 101.21 102.5 89.09 102.5 L 88.5 102.5 Z" fill="#b3b3b3" stroke="none" transform="rotate(45,94.86,90.38)" pointer-events="all"/><path d="M 55.15 62.16 L 64.15 62.16 L 64.15 120.28 L 55.15 120.28 L 55.15 62.16 Z" fill="#b3b3b3" stroke="none" transform="rotate(90,59.65,91.22)" pointer-events="all"/><path d="M 55.15 62.16 L 55.15 120.28 L 55.15 120.28 L 64.15 120.28 L 64.15 62.16 L 55.15 62.16" fill="none" stroke="none" transform="rotate(90,59.65,91.22)" pointer-events="all"/><path d="M 55.15 62.16 L 64.15 62.16 L 64.15 120.28 L 55.15 120.28 L 55.15 62.16 Z" fill="none" stroke="none" transform="rotate(90,59.65,91.22)" pointer-events="all"/><path d="M 34.19 87 L 34.19 70.75 L 56.15 87 Z" fill="#b3b3b3" stroke="none" transform="rotate(-90,45.17,78.88)" pointer-events="all"/><path d="M 26.72 74.77 L 39.16 74.77 L 39.16 93.77 L 26.72 93.77 L 26.72 74.77 Z" fill="#b3b3b3" stroke="none" transform="rotate(105,32.94,84.27)" pointer-events="all"/><path d="M 26.72 74.77 L 26.72 93.77 L 26.72 93.77 L 39.16 93.77 L 39.16 74.77 L 26.72 74.77" fill="none" stroke="none" transform="rotate(105,32.94,84.27)" pointer-events="all"/><path d="M 26.72 74.77 L 39.16 74.77 L 39.16 93.77 L 26.72 93.77 L 26.72 74.77 Z" fill="none" stroke="none" transform="rotate(105,32.94,84.27)" pointer-events="all"/><path d="M 79.56 74.77 L 92 74.77 L 92 93.77 L 79.56 93.77 L 79.56 74.77 Z" fill="#b3b3b3" stroke="none" transform="rotate(75,85.78,84.27)" pointer-events="all"/><path d="M 79.56 74.77 L 79.56 93.77 L 79.56 93.77 L 92 93.77 L 92 74.77 L 79.56 74.77" fill="none" stroke="none" transform="rotate(75,85.78,84.27)" pointer-events="all"/><path d="M 79.56 74.77 L 92 74.77 L 92 93.77 L 79.56 93.77 L 79.56 74.77 Z" fill="none" stroke="none" transform="rotate(75,85.78,84.27)" pointer-events="all"/><path d="M 64.15 88 L 64.15 71.75 L 86.11 88 Z" fill="#b3b3b3" stroke="none" transform="translate(0,79.88)scale(1,-1)translate(0,-79.88)rotate(90,75.13,79.88)" pointer-events="all"/><path d="M 44.03 84.5 L 52.06 73.25 L 60.1 84.5 Z" fill="#b3b3b3" stroke="none" transform="rotate(307,52.07,78.88)" pointer-events="all"/><path d="M 60.1 84.5 L 68.13 73.25 L 76.17 84.5 Z" fill="#b3b3b3" stroke="none" transform="rotate(55,68.13,78.88)" pointer-events="all"/><rect x="38.5" y="90" width="43" height="21" rx="5.67" ry="5.67" fill="#b3b3b3" stroke="none" pointer-events="all"/></g></svg>