<?xml version="1.0" encoding="UTF-8"?>
<!DOCTYPE svg PUBLIC "-//W3C//DTD SVG 1.1//EN" "http://www.w3.org/Graphics/SVG/1.1/DTD/svg11.dtd">
<svg xmlns="http://www.w3.org/2000/svg" xmlns:xlink="http://www.w3.org/1999/xlink" version="1.1" width="125px" height="125px" viewBox="-0.5 -0.5 125 125"><defs><style type="text/css">@import url(https://fonts.googleapis.com/css?family=Architects+Daughter);&#xa;</style></defs><g><rect x="4" y="0" width="120" height="120" fill="none" stroke="none" pointer-events="all"/><path d="M 22 52 L 62 82 L 22 112 Z" fill="#b3b3b3" stroke="none" transform="rotate(-45,42,82)" pointer-events="none"/><path d="M 18 88 L 8 48 L 48 88 Z" fill="#b3b3b3" stroke="none" transform="rotate(45,28,68)" pointer-events="none"/><path d="M 46 116 L 36 76 L 76 116 Z" fill="#b3b3b3" stroke="none" transform="translate(56,0)scale(-1,1)translate(-56,0)rotate(-45,56,96)" pointer-events="none"/><path d="M 71 8 Q 112 8 112 33 Q 112 58 71 58 Z" fill="#b3b3b3" stroke="none" transform="rotate(-45,91.5,33)" pointer-events="none"/><rect x="60" y="29" width="20" height="50" fill="#b3b3b3" stroke="none" transform="rotate(-45,70,54)" pointer-events="none"/><path d="M 43 36 L 83 36 L 63 61 Z" fill="#b3b3b3" stroke="none" transform="rotate(-45,63,61)" pointer-events="none"/><path d="M 43 86 L 83 86 L 63 61 Z" fill="#b3b3b3" stroke="none" transform="rotate(-45,63,61)" pointer-events="none"/></g></svg>