<?xml version="1.0" encoding="UTF-8"?>
<!DOCTYPE svg PUBLIC "-//W3C//DTD SVG 1.1//EN" "http://www.w3.org/Graphics/SVG/1.1/DTD/svg11.dtd">
<svg xmlns="http://www.w3.org/2000/svg" xmlns:xlink="http://www.w3.org/1999/xlink" version="1.1" width="120px" height="120px" viewBox="-0.5 -0.5 120 120"><defs/><g><rect x="0" y="0" width="120" height="120" fill="none" stroke="none" pointer-events="all"/><path d="M 13.09 81.61 L 5.88 58.78 L 34.71 81.61 Z" fill="#b3b3b3" stroke="none" transform="rotate(45,20.3,70.19)" pointer-events="all"/><path d="M 44.3 112.4 L 37.3 88.52 L 65.3 112.4 Z" fill="#b3b3b3" stroke="none" transform="translate(51.3,0)scale(-1,1)translate(-51.3,0)rotate(-45,51.3,100.46)" pointer-events="all"/><path d="M 26.15 92.63 L 16.15 48.63 L 56.15 92.63 Z" fill="#b3b3b3" stroke="none" transform="rotate(45,36.15,70.63)" pointer-events="all"/><path d="M 39.5 106.38 L 29.5 62.38 L 69.5 106.38 Z" fill="#b3b3b3" stroke="none" transform="translate(49.5,0)scale(-1,1)translate(-49.5,0)rotate(-45,49.5,84.38)" pointer-events="all"/><path d="M 59.62 12.98 Q 110.43 12.98 110.43 35.48 Q 110.43 57.98 59.62 57.98 Z" fill="#b3b3b3" stroke="none" transform="rotate(-45,85.02,35.48)" pointer-events="all"/><path d="M 35.45 43.81 L 80.45 43.81 L 80.45 60 L 57.95 81.32 L 35.45 60 Z" fill="#b3b3b3" stroke="none" transform="rotate(45,57.95,62.56)" pointer-events="all"/></g></svg>