<?xml version="1.0" encoding="UTF-8"?>
<!DOCTYPE svg PUBLIC "-//W3C//DTD SVG 1.1//EN" "http://www.w3.org/Graphics/SVG/1.1/DTD/svg11.dtd">
<svg xmlns="http://www.w3.org/2000/svg" xmlns:xlink="http://www.w3.org/1999/xlink" version="1.1" width="400px" height="400px" viewBox="-0.5 -0.5 400 400"><defs><style type="text/css">@import url(https://fonts.googleapis.com/css?family=Architects+Daughter);&#xa;</style></defs><g><rect x="0" y="0" width="400" height="400" fill="none" stroke="none" pointer-events="all"/><path d="M 87 106 L 219 106 Q 240 106 240 127 Q 240 148 219 148 L 87 148 Z" fill="#ac775e" stroke="none" transform="rotate(-90,163.5,127)" pointer-events="all"/><path d="M -52.29 166.6 C -52.29 188.69 12.76 206.6 92.99 206.6 C 173.23 206.6 238.28 188.69 238.28 166.6 Z" fill="#ac775e" stroke="none" transform="rotate(108,92.99,186.6)" pointer-events="all"/><path d="M 89.94 200.44 L 109.66 316.39 C 109.85 317.49 109.94 318.62 109.94 319.74 C 109.94 330.79 100.99 339.74 89.94 339.74 C 78.89 339.74 69.94 330.79 69.94 319.74 C 69.94 318.62 70.03 317.49 70.22 316.39 Z" fill="#f3dda9" stroke="none" transform="rotate(14,89.94,270.09)" pointer-events="all"/><path d="M 160 106 L 292 106 Q 313 106 313 127 Q 313 148 292 148 L 160 148 Z" fill="#ac775e" stroke="none" transform="rotate(-90,236.5,127)" pointer-events="all"/><path d="M 162 166.6 C 162 188.69 227.05 206.6 307.28 206.6 C 387.52 206.6 452.57 188.69 452.57 166.6 Z" fill="#ac775e" stroke="none" transform="rotate(252,307.28,186.6)" pointer-events="all"/><path d="M 310.46 200.44 L 330.18 316.39 C 330.37 317.49 330.46 318.62 330.46 319.74 C 330.46 330.79 321.51 339.74 310.46 339.74 C 299.41 339.74 290.46 330.79 290.46 319.74 C 290.46 318.62 290.55 317.49 290.74 316.39 Z" fill="#f3dda9" stroke="none" transform="rotate(346,310.46,270.09)" pointer-events="all"/><ellipse cx="200" cy="239" rx="100" ry="100" fill="#ac775e" stroke="none" transform="rotate(90,200,239)" pointer-events="all"/><ellipse cx="117.97" cy="163.01" rx="27.975" ry="114.005" fill="#f3dda9" stroke="none" transform="rotate(-30,117.97,163.01)" pointer-events="all"/><ellipse cx="282.97" cy="163.01" rx="27.975" ry="114.005" fill="#f3dda9" stroke="none" transform="rotate(210,282.97,163.01)" pointer-events="all"/></g></svg>