<?xml version="1.0" encoding="UTF-8"?>
<!DOCTYPE svg PUBLIC "-//W3C//DTD SVG 1.1//EN" "http://www.w3.org/Graphics/SVG/1.1/DTD/svg11.dtd">
<svg xmlns="http://www.w3.org/2000/svg" xmlns:xlink="http://www.w3.org/1999/xlink" version="1.1" width="400px" height="400px" viewBox="-0.5 -0.5 400 400"><defs><style type="text/css">@import url(https://fonts.googleapis.com/css?family=Architects+Daughter);&#xa;</style></defs><g><rect x="0" y="0" width="400" height="400" fill="none" stroke="none" pointer-events="all"/><path d="M 74 109 L 207 109 Q 227 109 227 129 Q 227 149 207 149 L 74 149 Z" fill="#ac775e" stroke="none" transform="rotate(-90,150.5,129)" pointer-events="all"/><path d="M -62.29 166.6 C -62.29 188.69 2.76 206.6 83 206.6 C 163.23 206.6 228.28 188.69 228.28 166.6 Z" fill="#ac775e" stroke="none" transform="rotate(108,83,186.6)" pointer-events="all"/><path d="M 76.4 229.3 L 95.9 314.86 C 96.23 316.31 96.4 317.8 96.4 319.3 C 96.4 330.35 87.45 339.3 76.4 339.3 C 65.35 339.3 56.4 330.35 56.4 319.3 C 56.4 317.8 56.57 316.31 56.9 314.86 Z" fill="#f3dda9" stroke="none" transform="rotate(14,76.4,284.3)" pointer-events="all"/><path d="M 174 109 L 307 109 Q 327 109 327 129 Q 327 149 307 149 L 174 149 Z" fill="#ac775e" stroke="none" transform="rotate(-90,250.5,129)" pointer-events="all"/><path d="M 172 166.6 C 172 188.69 237.05 206.6 317.28 206.6 C 397.52 206.6 462.57 188.69 462.57 166.6 Z" fill="#ac775e" stroke="none" transform="rotate(252,317.28,186.6)" pointer-events="all"/><path d="M 324 229.3 L 343.5 314.86 C 343.83 316.31 344 317.8 344 319.3 C 344 330.35 335.05 339.3 324 339.3 C 312.95 339.3 304 330.35 304 319.3 C 304 317.8 304.17 316.31 304.5 314.86 Z" fill="#f3dda9" stroke="none" transform="rotate(346,324,284.3)" pointer-events="all"/><ellipse cx="200" cy="239" rx="100" ry="100" fill="#ac775e" stroke="none" transform="rotate(90,200,239)" pointer-events="all"/><ellipse cx="117.97" cy="163.01" rx="27.974999999999998" ry="114.005" fill="#f3dda9" stroke="none" transform="rotate(-30,117.97,163.01)" pointer-events="all"/><ellipse cx="282.97" cy="163.01" rx="27.974999999999998" ry="114.005" fill="#f3dda9" stroke="none" transform="rotate(210,282.97,163.01)" pointer-events="all"/></g></svg>