<?xml version="1.0" encoding="UTF-8"?>
<!DOCTYPE svg PUBLIC "-//W3C//DTD SVG 1.1//EN" "http://www.w3.org/Graphics/SVG/1.1/DTD/svg11.dtd">
<svg xmlns="http://www.w3.org/2000/svg" xmlns:xlink="http://www.w3.org/1999/xlink" version="1.1" width="400px" height="400px" viewBox="-0.5 -0.5 400 400"><defs><style type="text/css">@import url(https://fonts.googleapis.com/css?family=Architects+Daughter);&#xa;</style></defs><g><rect x="0" y="0" width="400" height="400" fill="none" stroke="none" pointer-events="all"/><path d="M 152.62 238.65 L 152.62 183.69 L 199.12 211.07 L 245.61 183.69 L 245.61 238.65 L 288.39 263.94 L 245.61 289.42 L 245.61 344.38 L 199.12 316.81 L 152.62 344.38 L 152.62 289.42 L 109.84 263.94 Z" fill="#c46282" stroke="none" transform="rotate(30,199.12,264.03)" pointer-events="all"/><ellipse cx="199.11" cy="230" rx="60" ry="60" fill="#edf4e0" stroke="none" pointer-events="all"/><path d="M 133.67 60 Q 264.56 60 264.56 217.5 Q 264.56 375 133.67 375 Q 199.12 217.5 133.67 60 Z" fill="#edf4e0" stroke="none" transform="rotate(-90,199.12,217.5)" pointer-events="all"/><path d="M 66.11 200.06 L 156.55 157.5 L 199.11 67.06 L 241.67 157.5 L 332.11 200.06 L 241.67 242.62 L 199.11 333.06 L 156.55 242.62 Z" fill="#27321a" stroke="none" transform="rotate(135,199.11,200.06)" pointer-events="all"/><path d="M 199.11 152.56 L 220.61 200.06 L 199.11 247.56 L 177.61 200.06 Z" fill="#417640" stroke="none" pointer-events="all"/><ellipse cx="200.61" cy="70" rx="20" ry="20" fill="#c46282" stroke="none" pointer-events="all"/></g></svg>