<?xml version="1.0" encoding="UTF-8"?>
<!DOCTYPE svg PUBLIC "-//W3C//DTD SVG 1.1//EN" "http://www.w3.org/Graphics/SVG/1.1/DTD/svg11.dtd">
<svg xmlns="http://www.w3.org/2000/svg" xmlns:xlink="http://www.w3.org/1999/xlink" version="1.1" width="400px" height="400px" viewBox="-0.5 -0.5 400 400"><defs><style type="text/css">@import url(https://fonts.googleapis.com/css?family=Architects+Daughter);&#xa;</style></defs><g><rect x="0" y="0" width="400" height="400" fill="none" stroke="none" pointer-events="all"/><ellipse cx="200" cy="227" rx="130" ry="130" fill="#ffe9d5" stroke="none" pointer-events="all"/><path d="M 82.5 81 C 82.5 120.65 135.11 152.8 200 152.8 C 264.89 152.8 317.5 120.65 317.5 81 Z" fill="#dfb586" stroke="none" transform="rotate(-180,200,116.9)" pointer-events="all"/><path d="M 19.23 141 L 75.62 61 L 132 141 Z" fill="#dfb586" stroke="none" transform="rotate(320,75.62,101)" pointer-events="all"/><path d="M 128.5 235.22 L 201 142.95 L 273.5 235.22 Z" fill="#dfb586" stroke="none" transform="rotate(-180,201,189.09)" pointer-events="all"/><path d="M 216.61 203.39 C 216.61 240.51 265.86 270.61 326.61 270.61 C 387.36 270.61 436.61 240.51 436.61 203.39 Z" fill="#dfb586" stroke="none" transform="rotate(265,326.61,237)" pointer-events="all"/><path d="M -38.39 203.39 C -38.39 240.51 10.86 270.61 71.61 270.61 C 132.36 270.61 181.61 240.51 181.61 203.39 Z" fill="#dfb586" stroke="none" transform="translate(0,237)scale(1,-1)translate(0,-237)rotate(-275,71.61,237)" pointer-events="all"/><path d="M 90.5 218.22 L 206.5 125.95 L 235.5 218.22 Z" fill="#dfb586" stroke="none" transform="rotate(-180,163,172.09)" pointer-events="all"/><path d="M 161 218.22 L 277 125.95 L 306 218.22 Z" fill="#dfb586" stroke="none" transform="translate(233.5,0)scale(-1,1)translate(-233.5,0)rotate(180,233.5,172.09)" pointer-events="all"/><path d="M 266 141 L 322.38 61 L 378.77 141 Z" fill="#dfb586" stroke="none" transform="translate(322.39,0)scale(-1,1)translate(-322.39,0)rotate(-40,322.39,101)" pointer-events="all"/><path d="M 59.65 127.71 L 82.91 94.71 L 106.17 127.71 Z" fill="rgb(255, 255, 255)" stroke="none" transform="rotate(320,82.91,111.21)" pointer-events="all"/><path d="M 292.65 127.71 L 315.91 94.71 L 339.17 127.71 Z" fill="rgb(255, 255, 255)" stroke="none" transform="rotate(40,315.91,111.21)" pointer-events="all"/><path d="M 174.15 18.84 Q 210.15 18.84 210.15 48.84 Q 210.15 78.84 174.15 78.84 Q 192.15 48.84 174.15 18.84 Z" fill="#dfb586" stroke="none" transform="translate(192.15,0)scale(-1,1)translate(-192.15,0)rotate(-15,192.15,48.84)" pointer-events="all"/></g></svg>