<?xml version="1.0" encoding="UTF-8"?>
<!DOCTYPE svg PUBLIC "-//W3C//DTD SVG 1.1//EN" "http://www.w3.org/Graphics/SVG/1.1/DTD/svg11.dtd">
<svg xmlns="http://www.w3.org/2000/svg" xmlns:xlink="http://www.w3.org/1999/xlink" version="1.1" width="400px" height="400px" viewBox="-0.5 -0.5 400 400"><defs/><g><rect x="-1" y="0" width="400" height="400" fill="none" stroke="none" pointer-events="all"/><ellipse cx="199" cy="227" rx="130" ry="130" fill="#ffe9d5" stroke="none" pointer-events="all"/><path d="M 81.5 81 C 81.5 120.65 134.11 152.8 199 152.8 C 263.89 152.8 316.5 120.65 316.5 81 Z" fill="#dfb586" stroke="none" transform="rotate(-180,199,116.9)" pointer-events="all"/><path d="M 18.23 141 L 74.62 61 L 131 141 Z" fill="#dfb586" stroke="none" transform="rotate(320,74.62,101)" pointer-events="all"/><path d="M 127.5 235.22 L 200 142.95 L 272.5 235.22 Z" fill="#dfb586" stroke="none" transform="rotate(-180,200,189.09)" pointer-events="all"/><path d="M 215.61 203.39 C 215.61 240.51 264.86 270.61 325.61 270.61 C 386.36 270.61 435.61 240.51 435.61 203.39 Z" fill="#dfb586" stroke="none" transform="rotate(265,325.61,237)" pointer-events="all"/><path d="M -39.39 203.39 C -39.39 240.51 9.86 270.61 70.61 270.61 C 131.36 270.61 180.61 240.51 180.61 203.39 Z" fill="#dfb586" stroke="none" transform="translate(0,237)scale(1,-1)translate(0,-237)rotate(-275,70.61,237)" pointer-events="all"/><path d="M 89.5 218.22 L 205.5 125.95 L 234.5 218.22 Z" fill="#dfb586" stroke="none" transform="rotate(-180,162,172.09)" pointer-events="all"/><path d="M 160 218.22 L 276 125.95 L 305 218.22 Z" fill="#dfb586" stroke="none" transform="translate(232.5,0)scale(-1,1)translate(-232.5,0)rotate(180,232.5,172.09)" pointer-events="all"/><path d="M 265 141 L 321.38 61 L 377.77 141 Z" fill="#dfb586" stroke="none" transform="translate(321.39,0)scale(-1,1)translate(-321.39,0)rotate(-40,321.39,101)" pointer-events="all"/><path d="M 58.65 127.71 L 81.91 94.71 L 105.17 127.71 Z" fill="rgb(255, 255, 255)" stroke="none" transform="rotate(320,81.91,111.21)" pointer-events="all"/><path d="M 291.65 127.71 L 314.91 94.71 L 338.17 127.71 Z" fill="rgb(255, 255, 255)" stroke="none" transform="rotate(40,314.91,111.21)" pointer-events="all"/><path d="M 167.2 10.84 Q 208.5 10.84 208.5 45.26 Q 208.5 79.68 167.2 79.68 Q 187.85 45.26 167.2 10.84 Z" fill="#dfb586" stroke="none" transform="translate(187.85,0)scale(-1,1)translate(-187.85,0)rotate(-15,187.85,45.26)" pointer-events="all"/></g></svg>