<?xml version="1.0" encoding="UTF-8"?>
<!DOCTYPE svg PUBLIC "-//W3C//DTD SVG 1.1//EN" "http://www.w3.org/Graphics/SVG/1.1/DTD/svg11.dtd">
<svg xmlns="http://www.w3.org/2000/svg" xmlns:xlink="http://www.w3.org/1999/xlink" version="1.1" width="480px" height="480px" viewBox="-0.5 -0.5 480 480"><defs><style type="text/css">@import url(https://fonts.googleapis.com/css?family=Architects+Daughter);&#xa;</style></defs><g><rect x="0" y="0" width="480" height="480" fill="none" stroke="none" pointer-events="all"/><path d="M 329.2 120 C 347.19 117.95 360.02 102.45 357.86 85.37 C 355.7 68.29 339.37 56.11 321.38 58.16 C 321.18 32.65 302.34 10.69 276.07 5.35 C 249.79 0 223.13 12.7 211.93 35.89 C 203.64 26.89 190.46 23.49 178.51 27.27 C 166.55 31.05 158.16 41.28 157.21 53.21 C 137.78 52.53 121.45 66.92 120.73 85.37 C 120.01 103.81 135.18 119.32 154.61 120 Z" fill="#ededed" stroke="none" pointer-events="all"/><path d="M 210 180 L 245.4 144.6 Q 250 140 256.5 140 L 343.5 140 Q 350 140 350 146.5 L 350 213.5 Q 350 220 343.5 220 L 176.5 220 Q 170 220 170 220 L 170 220 Z" fill="#ebb02d" stroke="none" transform="translate(260,0)scale(-1,1)translate(-260,0)" pointer-events="all"/><path d="M 360 170 Q 470.33 170 470.33 325 Q 470.33 480 360 480 Z" fill="#ebb02d" stroke="none" transform="translate(415.16,0)scale(-1,1)translate(-415.16,0)" pointer-events="all"/><path d="M 7 200 L 162 200 Q 287 200 287 325 Q 287 450 162 450 L 7 450 Z" fill="#668c61" stroke="none" transform="translate(147,0)scale(-1,1)translate(-147,0)" pointer-events="all"/><path d="M 160 325 C 183.95 262.02 225.85 216.52 275.11 200 L 393.18 200 C 427.81 222.4 450.01 271.23 450.01 325 C 450.01 378.77 427.81 427.6 393.18 450 L 275.11 450 C 225.85 433.48 183.95 387.98 160 325 Z" fill="#668c61" stroke="none" transform="translate(305,0)scale(-1,1)translate(-305,0)" pointer-events="all"/><path d="M 7 200 Q 120 200 120 325 Q 120 450 7 450 Z" fill="#ebb02d" stroke="none" transform="translate(63.5,0)scale(-1,1)translate(-63.5,0)" pointer-events="all"/><ellipse cx="275" cy="325" rx="55" ry="55" fill="#f5f5f5" stroke="#666666" stroke-width="20" pointer-events="all"/></g></svg>