<?xml version="1.0" encoding="UTF-8"?>
<!DOCTYPE svg PUBLIC "-//W3C//DTD SVG 1.1//EN" "http://www.w3.org/Graphics/SVG/1.1/DTD/svg11.dtd">
<svg xmlns="http://www.w3.org/2000/svg" xmlns:xlink="http://www.w3.org/1999/xlink" version="1.1" width="480px" height="480px" viewBox="-0.5 -0.5 480 480"><defs/><g><rect x="0" y="0" width="480" height="480" fill="none" stroke="none" pointer-events="all"/><path d="M 210 95 L 245.4 59.6 Q 250 55 256.5 55 L 343.5 55 Q 350 55 350 61.5 L 350 128.5 Q 350 135 343.5 135 L 176.5 135 Q 170 135 170 135 L 170 135 Z" fill="#ebb02d" stroke="none" transform="translate(260,0)scale(-1,1)translate(-260,0)" pointer-events="all"/><path d="M 360 85 Q 470.33 85 470.33 240 Q 470.33 395 360 395 Z" fill="#ebb02d" stroke="none" transform="translate(415.16,0)scale(-1,1)translate(-415.16,0)" pointer-events="all"/><path d="M 7 115 L 162 115 Q 287 115 287 240 Q 287 365 162 365 L 7 365 Z" fill="#668c61" stroke="none" transform="translate(147,0)scale(-1,1)translate(-147,0)" pointer-events="all"/><path d="M 160 240 C 183.95 177.02 225.85 131.52 275.11 115 L 393.18 115 C 427.81 137.4 450.01 186.23 450.01 240 C 450.01 293.77 427.81 342.6 393.18 365 L 275.11 365 C 225.85 348.48 183.95 302.98 160 240 Z" fill="#668c61" stroke="none" transform="translate(305,0)scale(-1,1)translate(-305,0)" pointer-events="all"/><path d="M 7 115 Q 120 115 120 240 Q 120 365 7 365 Z" fill="#ebb02d" stroke="none" transform="translate(63.5,0)scale(-1,1)translate(-63.5,0)" pointer-events="all"/><ellipse cx="275" cy="240" rx="55" ry="55" fill="#f5f5f5" stroke="#666666" stroke-width="20" pointer-events="all"/></g></svg>