<?xml version="1.0" encoding="UTF-8"?>
<!DOCTYPE svg PUBLIC "-//W3C//DTD SVG 1.1//EN" "http://www.w3.org/Graphics/SVG/1.1/DTD/svg11.dtd">
<svg xmlns="http://www.w3.org/2000/svg" xmlns:xlink="http://www.w3.org/1999/xlink" version="1.1" width="480px" height="480px" viewBox="-0.5 -0.5 480 480"><defs/><g><rect x="0" y="0" width="480" height="480" fill="none" stroke="none" pointer-events="all"/><path d="M 210 125 L 245.4 89.6 Q 250 85 256.5 85 L 343.5 85 Q 350 85 350 91.5 L 350 158.5 Q 350 165 343.5 165 L 176.5 165 Q 170 165 170 165 L 170 165 Z" fill="#ebb02d" stroke="none" transform="translate(260,0)scale(-1,1)translate(-260,0)" pointer-events="all"/><path d="M 360 115 Q 470.33 115 470.33 270 Q 470.33 425 360 425 Z" fill="#ebb02d" stroke="none" transform="translate(415.16,0)scale(-1,1)translate(-415.16,0)" pointer-events="all"/><path d="M 7 145 L 162 145 Q 287 145 287 270 Q 287 395 162 395 L 7 395 Z" fill="#668c61" stroke="none" transform="translate(147,0)scale(-1,1)translate(-147,0)" pointer-events="all"/><path d="M 160 270 C 183.95 207.02 225.85 161.52 275.11 145 L 393.18 145 C 427.81 167.4 450.01 216.23 450.01 270 C 450.01 323.77 427.81 372.6 393.18 395 L 275.11 395 C 225.85 378.48 183.95 332.98 160 270 Z" fill="#668c61" stroke="none" transform="translate(305,0)scale(-1,1)translate(-305,0)" pointer-events="all"/><path d="M 7 145 Q 120 145 120 270 Q 120 395 7 395 Z" fill="#ebb02d" stroke="none" transform="translate(63.5,0)scale(-1,1)translate(-63.5,0)" pointer-events="all"/><ellipse cx="275" cy="270" rx="55" ry="55" fill="#f5f5f5" stroke="#666666" stroke-width="20" pointer-events="all"/></g></svg>