<?xml version="1.0" encoding="UTF-8"?>
<!DOCTYPE svg PUBLIC "-//W3C//DTD SVG 1.1//EN" "http://www.w3.org/Graphics/SVG/1.1/DTD/svg11.dtd">
<svg xmlns="http://www.w3.org/2000/svg" xmlns:xlink="http://www.w3.org/1999/xlink" version="1.1" width="391px" height="390px" viewBox="-0.5 -0.5 391 390"><defs/><g><path d="M 170 390 L 190 160 L 230 160 L 250 390 Z" fill="#fecd4d" stroke="none" pointer-events="all"/><path d="M 150 390 L 170 160 L 209.47 160 L 229.47 390 Z" fill="#cf2b03" stroke="none" pointer-events="all"/><path d="M 147 370 L 167 170 L 187 170 L 207 370 Z" fill="#881201" stroke="none" pointer-events="all"/><path d="M 245.21 340 C 256.49 339.15 264.54 332.69 263.19 325.57 C 261.84 318.45 251.59 313.38 240.31 314.23 C 240.18 303.6 228.37 294.46 211.89 292.23 C 195.41 290 178.68 295.29 171.66 304.96 C 166.46 301.2 158.19 299.79 150.7 301.36 C 143.2 302.94 137.93 307.2 137.34 312.17 C 125.15 311.89 114.91 317.89 114.46 325.57 C 114.01 333.25 123.52 339.72 135.71 340 Z" fill="#fecd4d" stroke="none" pointer-events="all"/><path d="M 288.63 170 C 308.12 167.1 322.02 145.13 319.69 120.94 C 317.35 96.74 299.65 79.49 280.16 82.39 C 279.95 46.25 259.54 15.15 231.07 7.58 C 202.61 0 173.72 17.99 161.6 50.85 C 152.61 38.09 138.33 33.28 125.38 38.64 C 112.43 43.99 103.34 58.48 102.31 75.38 C 81.26 74.41 63.57 94.81 62.79 120.94 C 62.01 147.07 78.44 169.03 99.49 170 Z" fill="#fecd4d" stroke="none" pointer-events="all"/><path d="M 247.94 110 C 259.22 108.12 267.27 93.91 265.92 78.25 C 264.57 62.6 254.32 51.43 243.04 53.31 C 242.91 29.93 231.1 9.8 214.62 4.9 C 198.14 0 181.41 11.64 174.39 32.9 C 169.19 24.65 160.92 21.53 153.43 25 C 145.93 28.47 140.66 37.84 140.07 48.78 C 127.88 48.15 117.64 61.35 117.19 78.25 C 116.74 95.16 126.25 109.37 138.44 110 Z" fill="#fecd4d" stroke="none" transform="translate(191.99,0)scale(-1,1)translate(-191.99,0)" pointer-events="all"/><path d="M 167.21 170 C 178.49 168.46 186.54 156.83 185.19 144.03 C 183.84 131.22 173.59 122.08 162.31 123.62 C 162.18 104.49 150.37 88.02 133.89 84.01 C 117.41 80 100.68 89.53 93.66 106.92 C 88.46 100.17 80.19 97.62 72.7 100.45 C 65.2 103.29 59.93 110.96 59.34 119.91 C 47.15 119.39 36.91 130.19 36.46 144.03 C 36.01 157.86 45.52 169.49 57.71 170 Z" fill="#fecd4d" stroke="none" transform="translate(111.26,0)scale(-1,1)translate(-111.26,0)" pointer-events="all"/><path d="M 317.74 150 C 329.02 148.12 337.07 133.91 335.72 118.25 C 334.37 102.6 324.12 91.43 312.84 93.31 C 312.71 69.93 300.9 49.8 284.42 44.9 C 267.94 40 251.21 51.64 244.19 72.9 C 238.99 64.65 230.72 61.53 223.23 65 C 215.73 68.47 210.46 77.84 209.87 88.78 C 197.68 88.15 187.44 101.35 186.99 118.25 C 186.54 135.16 196.05 149.37 208.24 150 Z" fill="#fecd4d" stroke="none" transform="translate(261.8,0)scale(-1,1)translate(-261.8,0)" pointer-events="all"/><path d="M 343.21 170 C 354.49 168.46 362.54 156.83 361.19 144.03 C 359.84 131.22 349.59 122.08 338.31 123.62 C 338.18 104.49 326.37 88.02 309.89 84.01 C 293.41 80 276.68 89.53 269.66 106.92 C 264.46 100.17 256.19 97.62 248.7 100.45 C 241.2 103.29 235.93 110.96 235.34 119.91 C 223.15 119.39 212.91 130.19 212.46 144.03 C 212.01 157.86 221.52 169.49 233.71 170 Z" fill="#fecd4d" stroke="none" transform="translate(287.27,0)scale(-1,1)translate(-287.27,0)" pointer-events="all"/><path d="M 201.21 360 C 212.49 359.15 220.54 352.69 219.19 345.57 C 217.84 338.45 207.59 333.38 196.31 334.23 C 196.18 323.6 184.37 314.46 167.89 312.23 C 151.41 310 134.68 315.29 127.66 324.96 C 122.46 321.2 114.19 319.79 106.7 321.36 C 99.2 322.94 93.93 327.2 93.34 332.17 C 81.15 331.89 70.91 337.89 70.46 345.57 C 70.01 353.25 79.52 359.72 91.71 360 Z" fill="#fecd4d" stroke="none" transform="translate(145.26,0)scale(-1,1)translate(-145.26,0)" pointer-events="all"/><path d="M 302.68 360 C 313.96 359.15 322.01 352.69 320.66 345.57 C 319.31 338.45 309.06 333.38 297.78 334.23 C 297.65 323.6 285.84 314.46 269.36 312.23 C 252.88 310 236.15 315.29 229.13 324.96 C 223.93 321.2 215.66 319.79 208.17 321.36 C 200.67 322.94 195.4 327.2 194.81 332.17 C 182.62 331.89 172.38 337.89 171.93 345.57 C 171.48 353.25 180.99 359.72 193.18 360 Z" fill="#fecd4d" stroke="none" pointer-events="all"/><path d="M 171.21 390 C 182.49 389.15 190.54 382.69 189.19 375.57 C 187.84 368.45 177.59 363.38 166.31 364.23 C 166.18 353.6 154.37 344.46 137.89 342.23 C 121.41 340 104.68 345.29 97.66 354.96 C 92.46 351.2 84.19 349.79 76.7 351.36 C 69.2 352.94 63.93 357.2 63.34 362.17 C 51.15 361.89 40.91 367.89 40.46 375.57 C 40.01 383.25 49.52 389.72 61.71 390 Z" fill="#fecd4d" stroke="none" transform="translate(115.26,0)scale(-1,1)translate(-115.26,0)" pointer-events="all"/><path d="M 371.21 390 C 382.49 389.15 390.54 382.69 389.19 375.57 C 387.84 368.45 377.59 363.38 366.31 364.23 C 366.18 353.6 354.37 344.46 337.89 342.23 C 321.41 340 304.68 345.29 297.66 354.96 C 292.46 351.2 284.19 349.79 276.7 351.36 C 269.2 352.94 263.93 357.2 263.34 362.17 C 251.15 361.89 240.91 367.89 240.46 375.57 C 240.01 383.25 249.52 389.72 261.71 390 Z" fill="#fecd4d" stroke="none" pointer-events="all"/><path d="M 321.74 390 C 333.02 389.15 341.07 382.69 339.72 375.57 C 338.37 368.45 328.12 363.38 316.84 364.23 C 316.71 353.6 304.9 344.46 288.42 342.23 C 271.94 340 255.21 345.29 248.19 354.96 C 242.99 351.2 234.72 349.79 227.23 351.36 C 219.73 352.94 214.46 357.2 213.87 362.17 C 201.68 361.89 191.44 367.89 190.99 375.57 C 190.54 383.25 200.05 389.72 212.24 390 Z" fill="#fecd4d" stroke="none" pointer-events="all"/><path d="M 131.21 390 C 142.49 389.15 150.54 382.69 149.19 375.57 C 147.84 368.45 137.59 363.38 126.31 364.23 C 126.18 353.6 114.37 344.46 97.89 342.23 C 81.41 340 64.68 345.29 57.66 354.96 C 52.46 351.2 44.19 349.79 36.7 351.36 C 29.2 352.94 23.93 357.2 23.34 362.17 C 11.15 361.89 0.91 367.89 0.46 375.57 C 0.01 383.25 9.52 389.72 21.71 390 Z" fill="#fecd4d" stroke="none" pointer-events="all"/><path d="M 168.21 364 C 179.49 363.15 187.54 356.69 186.19 349.57 C 184.84 342.45 174.59 337.38 163.31 338.23 C 163.18 327.6 151.37 318.46 134.89 316.23 C 118.41 314 101.68 319.29 94.66 328.96 C 89.46 325.2 81.19 323.79 73.7 325.36 C 66.2 326.94 60.93 331.2 60.34 336.17 C 48.15 335.89 37.91 341.89 37.46 349.57 C 37.01 357.25 46.52 363.72 58.71 364 Z" fill="#fecd4d" stroke="none" pointer-events="all"/><path d="M 230.68 171 C 241.96 169.98 250.01 162.22 248.66 153.68 C 247.31 145.15 237.06 139.05 225.78 140.08 C 225.65 127.32 213.84 116.35 197.36 113.67 C 180.88 111 164.15 117.35 157.13 128.95 C 151.93 124.44 143.66 122.74 136.17 124.64 C 128.67 126.53 123.4 131.64 122.81 137.6 C 110.62 137.26 100.38 144.46 99.93 153.68 C 99.48 162.91 108.99 170.66 121.18 171 Z" fill="#cf2b03" stroke="none" transform="translate(174.74,0)scale(-1,1)translate(-174.74,0)" pointer-events="all"/><path d="M 141.21 171 C 152.49 169.98 160.54 162.22 159.19 153.68 C 157.84 145.15 147.59 139.05 136.31 140.08 C 136.18 127.32 124.37 116.35 107.89 113.67 C 91.41 111 74.68 117.35 67.66 128.95 C 62.46 124.44 54.19 122.74 46.7 124.64 C 39.2 126.53 33.93 131.64 33.34 137.6 C 21.15 137.26 10.91 144.46 10.46 153.68 C 10.01 162.91 19.52 170.66 31.71 171 Z" fill="#cf2b03" stroke="none" transform="translate(85.26,0)scale(-1,1)translate(-85.26,0)" pointer-events="all"/><path d="M 195.21 390 C 206.49 389.32 214.54 384.15 213.19 378.46 C 211.84 372.76 201.59 368.7 190.31 369.39 C 190.18 360.88 178.37 353.56 161.89 351.78 C 145.41 350 128.68 354.23 121.66 361.96 C 116.46 358.96 108.19 357.83 100.7 359.09 C 93.2 360.35 87.93 363.76 87.34 367.74 C 75.15 367.51 64.91 372.31 64.46 378.46 C 64.01 384.6 73.52 389.77 85.71 390 Z" fill="#cf2b03" stroke="none" transform="translate(139.27,0)scale(-1,1)translate(-139.27,0)" pointer-events="all"/><path d="M 304.74 390 C 316.02 389.32 324.07 384.15 322.72 378.46 C 321.37 372.76 311.12 368.7 299.84 369.39 C 299.71 360.88 287.9 353.56 271.42 351.78 C 254.94 350 238.21 354.23 231.19 361.96 C 225.99 358.96 217.72 357.83 210.23 359.09 C 202.73 360.35 197.46 363.76 196.87 367.74 C 184.68 367.51 174.44 372.31 173.99 378.46 C 173.54 384.6 183.05 389.77 195.24 390 Z" fill="#cf2b03" stroke="none" pointer-events="all"/><path d="M 351.74 390 C 363.02 389.32 371.07 384.15 369.72 378.46 C 368.37 372.76 358.12 368.7 346.84 369.39 C 346.71 360.88 334.9 353.56 318.42 351.78 C 301.94 350 285.21 354.23 278.19 361.96 C 272.99 358.96 264.72 357.83 257.23 359.09 C 249.73 360.35 244.46 363.76 243.87 367.74 C 231.68 367.51 221.44 372.31 220.99 378.46 C 220.54 384.6 230.05 389.77 242.24 390 Z" fill="#cf2b03" stroke="none" pointer-events="all"/><path d="M 281.74 370 C 293.02 369.32 301.07 364.15 299.72 358.46 C 298.37 352.76 288.12 348.7 276.84 349.39 C 276.71 340.88 264.9 333.56 248.42 331.78 C 231.94 330 215.21 334.23 208.19 341.96 C 202.99 338.96 194.72 337.83 187.23 339.09 C 179.73 340.35 174.46 343.76 173.87 347.74 C 161.68 347.51 151.44 352.31 150.99 358.46 C 150.54 364.6 160.05 369.77 172.24 370 Z" fill="#cf2b03" stroke="none" pointer-events="all"/><path d="M 153.32 390 C 163.06 389.32 170.01 384.15 168.84 378.46 C 167.67 372.76 158.83 368.7 149.08 369.39 C 148.97 360.88 138.77 353.56 124.54 351.78 C 110.3 350 95.86 354.23 89.8 361.96 C 85.3 358.96 78.17 357.83 71.69 359.09 C 65.21 360.35 60.67 363.76 60.16 367.74 C 49.63 367.51 40.79 372.31 40.4 378.46 C 40.01 384.6 48.22 389.77 58.74 390 Z" fill="#cf2b03" stroke="none" pointer-events="all"/><path d="M 211.21 370 C 222.49 369.15 230.54 362.69 229.19 355.57 C 227.84 348.45 217.59 343.38 206.31 344.23 C 206.18 333.6 194.37 324.46 177.89 322.23 C 161.41 320 144.68 325.29 137.66 334.96 C 132.46 331.2 124.19 329.79 116.7 331.36 C 109.2 332.94 103.93 337.2 103.34 342.17 C 91.15 341.89 80.91 347.89 80.46 355.57 C 80.01 363.25 89.52 369.72 101.71 370 Z" fill="#cf2b03" stroke="none" pointer-events="all"/><path d="M 210.68 390 C 221.96 389.32 230.01 384.15 228.66 378.46 C 227.31 372.76 217.06 368.7 205.78 369.39 C 205.65 360.88 193.84 353.56 177.36 351.78 C 160.88 350 144.15 354.23 137.13 361.96 C 131.93 358.96 123.66 357.83 116.17 359.09 C 108.67 360.35 103.4 363.76 102.81 367.74 C 90.62 367.51 80.38 372.31 79.93 378.46 C 79.48 384.6 88.99 389.77 101.18 390 Z" fill="#881201" stroke="none" transform="translate(154.74,0)scale(-1,1)translate(-154.74,0)" pointer-events="all"/><path d="M 292.22 390 C 302.61 389.49 310.01 385.61 308.77 381.34 C 307.52 377.07 298.09 374.03 287.71 374.54 C 287.59 368.16 276.72 362.67 261.55 361.34 C 246.39 360 231 363.18 224.54 368.97 C 219.75 366.72 212.14 365.87 205.24 366.82 C 198.34 367.76 193.49 370.32 192.95 373.3 C 181.73 373.13 172.31 376.73 171.89 381.34 C 171.48 385.95 180.23 389.83 191.44 390 Z" fill="#881201" stroke="none" transform="translate(240.74,0)scale(-1,1)translate(-240.74,0)" pointer-events="all"/><path d="M 345.74 171 C 357.02 170.13 365.07 163.54 363.72 156.28 C 362.37 149.02 352.12 143.85 340.84 144.72 C 340.71 133.88 328.9 124.54 312.42 122.27 C 295.94 120 279.21 125.4 272.19 135.25 C 266.99 131.43 258.72 129.98 251.23 131.59 C 243.73 133.2 238.46 137.54 237.87 142.61 C 225.68 142.32 215.44 148.44 214.99 156.28 C 214.54 164.12 224.05 170.71 236.24 171 Z" fill="#cf2b03" stroke="none" transform="translate(289.8,0)scale(-1,1)translate(-289.8,0)" pointer-events="all"/><path d="M 291.74 150 C 303.02 148.98 311.07 141.22 309.72 132.68 C 308.37 124.15 298.12 118.05 286.84 119.08 C 286.71 106.32 274.9 95.35 258.42 92.67 C 241.94 90 225.21 96.35 218.19 107.95 C 212.99 103.44 204.72 101.74 197.23 103.64 C 189.73 105.53 184.46 110.64 183.87 116.6 C 171.68 116.26 161.44 123.46 160.99 132.68 C 160.54 141.91 170.05 149.66 182.24 150 Z" fill="#cf2b03" stroke="none" transform="translate(235.79,0)scale(-1,1)translate(-235.79,0)" pointer-events="all"/><path d="M 211.21 140 C 222.49 138.98 230.54 131.22 229.19 122.68 C 227.84 114.15 217.59 108.05 206.31 109.08 C 206.18 96.32 194.37 85.35 177.89 82.67 C 161.41 80 144.68 86.35 137.66 97.95 C 132.46 93.44 124.19 91.74 116.7 93.64 C 109.2 95.53 103.93 100.64 103.34 106.6 C 91.15 106.26 80.91 113.46 80.46 122.68 C 80.01 131.91 89.52 139.66 101.71 140 Z" fill="#cf2b03" stroke="none" transform="translate(155.26,0)scale(-1,1)translate(-155.26,0)" pointer-events="all"/><path d="M 245.21 110 C 256.49 108.98 264.54 101.22 263.19 92.68 C 261.84 84.15 251.59 78.05 240.31 79.08 C 240.18 66.32 228.37 55.35 211.89 52.67 C 195.41 50 178.68 56.35 171.66 67.95 C 166.46 63.44 158.19 61.74 150.7 63.64 C 143.2 65.53 137.93 70.64 137.34 76.6 C 125.15 76.26 114.91 83.46 114.46 92.68 C 114.01 101.91 123.52 109.66 135.71 110 Z" fill="#cf2b03" stroke="none" pointer-events="all"/><path d="M 259.05 172 C 271.28 171.09 280.01 164.25 278.55 156.7 C 277.08 149.16 265.97 143.78 253.73 144.69 C 253.59 133.42 240.78 123.72 222.9 121.36 C 205.03 119 186.89 124.61 179.28 134.85 C 173.64 130.88 164.67 129.37 156.54 131.05 C 148.41 132.72 142.7 137.23 142.05 142.5 C 128.84 142.2 117.73 148.56 117.24 156.7 C 116.75 164.85 127.06 171.7 140.28 172 Z" fill="#881201" stroke="none" transform="translate(198.37,0)scale(-1,1)translate(-198.37,0)" pointer-events="all"/><path d="M 195.21 172 C 206.49 171.27 214.54 165.71 213.19 159.59 C 211.84 153.47 201.59 149.11 190.31 149.84 C 190.18 140.7 178.37 132.83 161.89 130.92 C 145.41 129 128.68 133.55 121.66 141.86 C 116.46 138.63 108.19 137.42 100.7 138.77 C 93.2 140.13 87.93 143.79 87.34 148.07 C 75.15 147.82 64.91 152.98 64.46 159.59 C 64.01 166.2 73.52 171.76 85.71 172 Z" fill="#881201" stroke="none" transform="translate(139.27,0)scale(-1,1)translate(-139.27,0)" pointer-events="all"/><path d="M 294.15 172 C 303.41 171.45 310.01 167.32 308.9 162.76 C 307.79 158.21 299.39 154.96 290.13 155.51 C 290.03 148.71 280.34 142.85 266.82 141.43 C 253.3 140 239.59 143.39 233.83 149.57 C 229.56 147.17 222.78 146.26 216.63 147.27 C 210.48 148.28 206.16 151.01 205.67 154.19 C 195.68 154.01 187.28 157.85 186.91 162.76 C 186.54 167.68 194.34 171.82 204.33 172 Z" fill="#881201" stroke="none" transform="translate(248.26,0)scale(-1,1)translate(-248.26,0)" pointer-events="all"/><path d="M 222.84 150 C 229.06 148.98 233.5 141.22 232.75 132.68 C 232 124.15 226.36 118.05 220.13 119.08 C 220.07 106.32 213.55 95.35 204.46 92.67 C 195.38 90 186.16 96.35 182.28 107.95 C 179.42 103.44 174.86 101.74 170.72 103.64 C 166.59 105.53 163.69 110.64 163.36 116.6 C 156.64 116.26 150.99 123.46 150.74 132.68 C 150.49 141.91 155.74 149.66 162.46 150 Z" fill="#881201" stroke="none" pointer-events="all"/></g></svg>