<?xml version="1.0" encoding="UTF-8"?>
<!DOCTYPE svg PUBLIC "-//W3C//DTD SVG 1.1//EN" "http://www.w3.org/Graphics/SVG/1.1/DTD/svg11.dtd">
<svg xmlns="http://www.w3.org/2000/svg" xmlns:xlink="http://www.w3.org/1999/xlink" version="1.1" width="480px" height="760px" viewBox="-0.5 -0.5 480 760"><defs/><g><rect x="0" y="80" width="480" height="480" fill="none" stroke="none" pointer-events="all"/><rect x="0" y="0" width="480" height="80" fill="none" stroke="none" pointer-events="all"/><path d="M 83.13 138.13 L 304.38 138.13 Q 331.88 138.13 331.88 165.63 Q 331.88 193.13 304.38 193.13 L 83.13 193.13 Z" fill="#ac775e" stroke="none" transform="rotate(-90,207.51,165.63)" pointer-events="all"/><path d="M 111.88 196.03 L 265.48 196.03 Q 275.85 196.03 275.85 206.41 Q 275.85 216.78 265.48 216.78 L 111.88 216.78 Z" fill="#eb8c97" stroke="none" transform="rotate(-90,193.87,206.41)" pointer-events="all"/><path d="M -180.61 279.87 C -180.61 311.26 -53.68 336.71 102.89 336.71 C 259.46 336.71 386.39 311.26 386.39 279.87 Z" fill="#ac775e" stroke="none" transform="rotate(-255,102.89,308.29)" pointer-events="all"/><path d="M 40 760 L 40 557 L 115.86 370 L 115.86 760 Z" fill="#f3dda9" stroke="none" pointer-events="all"/><path d="M 146.89 138.13 L 368.14 138.13 Q 395.64 138.13 395.64 165.63 Q 395.64 193.13 368.14 193.13 L 146.89 193.13 Z" fill="#ac775e" stroke="none" transform="rotate(-90,271.26,165.63)" pointer-events="all"/><path d="M 92.47 279.87 C 92.47 311.26 219.4 336.71 375.97 336.71 C 532.54 336.71 659.47 311.26 659.47 279.87 Z" fill="#ac775e" stroke="none" transform="rotate(255,375.97,308.29)" pointer-events="all"/><path d="M 362 760 L 362 557 L 439 370 L 439 760 Z" fill="#f3dda9" stroke="none" transform="translate(400.5,0)scale(-1,1)translate(-400.5,0)" pointer-events="all"/><path d="M 112.35 139.73 L 179.67 121.23 L 265.36 139.73 Z" fill="#ac775e" stroke="none" transform="rotate(105,188.86,130.48)" pointer-events="all"/><path d="M 202.88 196.03 L 356.48 196.03 Q 366.85 196.03 366.85 206.41 Q 366.85 216.78 356.48 216.78 L 202.88 216.78 Z" fill="#eb8c97" stroke="none" transform="rotate(-90,284.87,206.41)" pointer-events="all"/><path d="M 213.84 139.23 L 281.16 120.73 L 366.85 139.23 Z" fill="#ac775e" stroke="none" transform="translate(290.35,0)scale(-1,1)translate(-290.35,0)rotate(-255,290.35,129.98)" pointer-events="all"/><ellipse cx="241.42" cy="376.59" rx="103" ry="116.59" fill="#ac775e" stroke="none" pointer-events="all"/><path d="M 239.91 463.87 C 239.25 472.59 235.05 479.99 229.14 482.81 C 223.23 485.63 216.7 483.36 212.4 477" fill="none" stroke="rgb(0, 0, 0)" stroke-width="3" stroke-miterlimit="10" pointer-events="all"/><path d="M 272.91 463.87 C 272.25 472.59 268.05 479.99 262.14 482.81 C 256.23 485.63 249.7 483.36 245.4 477" fill="none" stroke="rgb(0, 0, 0)" stroke-width="3" stroke-miterlimit="10" transform="translate(257,0)scale(-1,1)translate(-257,0)" pointer-events="all"/><path d="M 229.5 457.53 L 229.5 449.02 Q 229.5 440.5 237.27 446.8 L 243.88 452.17 Q 250.49 457.53 242.72 463.83 L 236.11 469.2 Q 229.5 474.56 229.5 466.05 Z" fill="#eb8c97" stroke="none" transform="rotate(90,239.99,457.53)" pointer-events="all"/><path d="M 296.26 398.4 L 309.27 412 C 312.47 415.35 314.26 419.8 314.26 424.44 C 314.26 429.21 312.36 433.79 308.99 437.17 C 305.61 440.54 301.03 442.44 296.26 442.44 C 291.49 442.44 286.91 440.54 283.53 437.17 C 280.16 433.79 278.26 429.21 278.26 424.44 C 278.26 419.8 280.05 415.35 283.25 412 Z" fill="#000000" stroke="none" transform="rotate(226,296.26,420.42)" pointer-events="all"/><path d="M 288.89 417.61 C 288.89 408.5 293.59 401.11 299.39 401.11 C 302.17 401.11 304.85 402.85 306.81 405.94 C 308.78 409.04 309.89 413.23 309.89 417.61 C 309.89 421.99 308.78 426.18 306.81 429.28 C 304.85 432.37 302.17 434.11 299.39 434.11 C 296.61 434.11 293.93 432.37 291.97 429.28 C 290 426.18 288.89 421.99 288.89 417.61 Z M 299.39 407.01 C 296.85 407.01 294.79 411.76 294.79 417.61 C 294.79 423.46 296.85 428.21 299.39 428.21 C 301.93 428.21 303.99 423.46 303.99 417.61 C 303.99 411.76 301.93 407.01 299.39 407.01 Z" fill="#d8818b" stroke="none" pointer-events="all"/><ellipse cx="293.89" cy="411.11" rx="5" ry="5" fill="rgb(255, 255, 255)" stroke="none" pointer-events="all"/><path d="M 183 399.09 L 196.01 412.69 C 199.21 416.04 201 420.49 201 425.13 C 201 429.9 199.1 434.48 195.73 437.86 C 192.35 441.23 187.77 443.13 183 443.13 C 178.23 443.13 173.65 441.23 170.27 437.86 C 166.9 434.48 165 429.9 165 425.13 C 165 420.49 166.79 416.04 169.99 412.69 Z" fill="#000000" stroke="none" transform="translate(183,0)scale(-1,1)translate(-183,0)rotate(-134,183,421.11)" pointer-events="all"/><path d="M 170.63 418.3 C 170.63 409.19 175.33 401.8 181.13 401.8 C 183.91 401.8 186.59 403.54 188.55 406.63 C 190.52 409.73 191.63 413.92 191.63 418.3 C 191.63 422.68 190.52 426.87 188.55 429.97 C 186.59 433.06 183.91 434.8 181.13 434.8 C 178.35 434.8 175.67 433.06 173.71 429.97 C 171.74 426.87 170.63 422.68 170.63 418.3 Z M 181.13 407.7 C 178.59 407.7 176.53 412.45 176.53 418.3 C 176.53 424.15 178.59 428.9 181.13 428.9 C 183.67 428.9 185.73 424.15 185.73 418.3 C 185.73 412.45 183.67 407.7 181.13 407.7 Z" fill="#d8818b" stroke="none" pointer-events="all"/><ellipse cx="175.63" cy="411.8" rx="5" ry="5" fill="rgb(255, 255, 255)" stroke="none" pointer-events="all"/><ellipse cx="132.5" cy="255.01" rx="40" ry="163" fill="#f3dda9" stroke="none" transform="rotate(-30,132.5,255.01)" pointer-events="all"/><ellipse cx="154.77" cy="356" rx="19.73" ry="73" fill="#f3dda9" stroke="none" transform="rotate(-60,154.77,356)" pointer-events="all"/><ellipse cx="324.73" cy="356" rx="19.73" ry="73" fill="#f3dda9" stroke="none" transform="rotate(60,324.73,356)" pointer-events="all"/><ellipse cx="347" cy="255" rx="40" ry="163" fill="#f3dda9" stroke="none" transform="rotate(30,347,255)" pointer-events="all"/></g></svg>