<?xml version="1.0" encoding="UTF-8"?>
<!DOCTYPE svg PUBLIC "-//W3C//DTD SVG 1.1//EN" "http://www.w3.org/Graphics/SVG/1.1/DTD/svg11.dtd">
<svg xmlns="http://www.w3.org/2000/svg" xmlns:xlink="http://www.w3.org/1999/xlink" version="1.1" width="400px" height="400px" viewBox="-0.5 -0.5 400 400"><defs/><g><rect x="0" y="0" width="400" height="400" fill="none" stroke="none" pointer-events="all"/><path d="M 152.5 254.96 L 152.5 200 L 199 227.38 L 245.49 200 L 245.49 254.96 L 288.27 280.25 L 245.49 305.73 L 245.49 360.69 L 199 333.12 L 152.5 360.69 L 152.5 305.73 L 109.72 280.25 Z" fill="#c46282" stroke="none" transform="rotate(30,199,280.35)" pointer-events="all"/><ellipse cx="199" cy="230" rx="60" ry="60" fill="#edf4e0" stroke="none" pointer-events="all"/><path d="M 137 41 Q 263.45 41 263.45 212.94 Q 263.45 384.89 137 384.89 Q 200.22 212.94 137 41 Z" fill="#edf4e0" stroke="none" transform="rotate(-90,200.22,212.94)" pointer-events="all"/><path d="M 61 200.06 L 155.52 155.58 L 200 61.06 L 244.48 155.58 L 339 200.06 L 244.48 244.54 L 200 339.06 L 155.52 244.54 Z" fill="#27321a" stroke="none" transform="rotate(135,200,200.06)" pointer-events="all"/><path d="M 200 161.34 L 217.52 200.06 L 200 238.78 L 182.47 200.06 Z" fill="#417640" stroke="none" pointer-events="all"/><ellipse cx="199" cy="65" rx="25" ry="25" fill="#c46282" stroke="none" pointer-events="all"/></g></svg>