<?xml version="1.0" encoding="UTF-8"?>
<!DOCTYPE svg PUBLIC "-//W3C//DTD SVG 1.1//EN" "http://www.w3.org/Graphics/SVG/1.1/DTD/svg11.dtd">
<svg xmlns="http://www.w3.org/2000/svg" xmlns:xlink="http://www.w3.org/1999/xlink" version="1.1" width="481px" height="560px" viewBox="-0.5 -0.5 481 560"><defs><style type="text/css">@import url(https://fonts.googleapis.com/css?family=Architects+Daughter);&#xa;</style></defs><g><rect x="-1" y="80" width="480" height="480" fill="none" stroke="none" pointer-events="all"/><rect x="-1" y="0" width="480" height="80" fill="none" stroke="none" pointer-events="all"/><path d="M 59 120 C 59 180.75 139.59 230 239 230 C 338.41 230 419 180.75 419 120 Z" fill="#f2cfa8" stroke="#4d332d" stroke-width="2" stroke-miterlimit="10" transform="rotate(-180,239,175)" pointer-events="all"/><ellipse cx="239" cy="338.5" rx="155" ry="145.50000000000003" fill="#ffe9d5" stroke="none" pointer-events="all"/><path d="M 240.03 432 C 240.03 443.04 230.75 452.77 217.19 455.94 C 203.63 459.12 189.01 454.98 181.21 445.77 C 173.42 436.56 174.29 424.45 183.36 415.98" fill="none" stroke="#4d332d" stroke-width="3" stroke-miterlimit="10" transform="rotate(15,207.97,432)" pointer-events="all"/><path d="M 301.15 432 C 301.15 443.04 291.87 452.77 278.31 455.94 C 264.75 459.12 250.13 454.98 242.33 445.77 C 234.54 436.56 235.41 424.45 244.48 415.98" fill="none" stroke="#4d332d" stroke-width="3" stroke-miterlimit="10" transform="translate(269.09,0)scale(-1,1)translate(-269.09,0)rotate(-345,269.09,432)" pointer-events="all"/><path d="M -33.01 279.5 C -33.01 310.96 9.44 336.47 61.8 336.47 C 114.15 336.47 156.6 310.96 156.6 279.5 Z" fill="#f2cfa8" stroke="#4d332d" stroke-width="2" stroke-miterlimit="10" transform="rotate(287,61.8,307.98)" pointer-events="all"/><path d="M 60.83 267.84 C 20.83 314.76 20.83 385.74 60.83 432.66 C 100.83 385.74 100.83 314.76 60.83 267.84 Z" fill="#f2cfa8" stroke="#4d332d" stroke-width="2" stroke-miterlimit="10" transform="rotate(15,60.84,350.25)" pointer-events="all"/><path d="M 59.99 258.72 C 19.99 305.64 19.99 376.62 59.99 423.54 C 99.99 376.62 99.99 305.64 59.99 258.72 Z" fill="#f2cfa8" stroke="none" transform="rotate(15,60,341.13)" pointer-events="all"/><path d="M 41.57 222.53 C 41.57 253.99 58.94 279.5 80.37 279.5 C 101.8 279.5 119.17 253.99 119.17 222.53 Z" fill="#f2cfa8" stroke="none" transform="rotate(287,80.37,251.01)" pointer-events="all"/><path d="M -33.44 297.13 C -33.44 330.27 22.03 357.13 90.45 357.13 C 158.87 357.13 214.34 330.27 214.34 297.13 Z" fill="#f2cfa8" stroke="#4d332d" stroke-width="2" stroke-miterlimit="10" transform="rotate(100,90.45,327.13)" pointer-events="all"/><path d="M 321 279.5 C 321 310.96 363.45 336.47 415.81 336.47 C 468.16 336.47 510.61 310.96 510.61 279.5 Z" fill="#f2cfa8" stroke="#4d332d" stroke-width="2" stroke-miterlimit="10" transform="rotate(73,415.8,307.98)" pointer-events="all"/><path d="M 417.99 267.84 C 377.99 314.76 377.99 385.74 417.99 432.66 C 457.99 385.74 457.99 314.76 417.99 267.84 Z" fill="#f2cfa8" stroke="#4d332d" stroke-width="2" stroke-miterlimit="10" transform="rotate(345,418,350.25)" pointer-events="all"/><path d="M 418.99 258.72 C 378.99 305.64 378.99 376.62 418.99 423.54 C 458.99 376.62 458.99 305.64 418.99 258.72 Z" fill="#f2cfa8" stroke="none" transform="translate(0,341.13)scale(1,-1)translate(0,-341.13)rotate(-345,419,341.13)" pointer-events="all"/><path d="M 358 220.53 C 358 251.99 375.37 277.5 396.8 277.5 C 418.23 277.5 435.6 251.99 435.6 220.53 Z" fill="#f2cfa8" stroke="none" transform="translate(396.8,0)scale(-1,1)translate(-396.8,0)rotate(-73,396.8,249.01)" pointer-events="all"/><path d="M 264.82 297.13 C 264.82 330.27 320.29 357.13 388.71 357.13 C 457.13 357.13 512.6 330.27 512.6 297.13 Z" fill="#f2cfa8" stroke="#4d332d" stroke-width="2" stroke-miterlimit="10" transform="translate(388.71,0)scale(-1,1)translate(-388.71,0)rotate(-260,388.71,327.13)" pointer-events="all"/><path d="M 38.07 205.32 C 38.07 239.56 67.84 267.32 104.57 267.32 C 141.3 267.32 171.07 239.56 171.07 205.32 Z" fill="#f2cfa8" stroke="none" transform="rotate(100,104.57,236.32)" pointer-events="all"/><path d="M 308 205.5 C 308 239.74 337.77 267.5 374.5 267.5 C 411.23 267.5 441 239.74 441 205.5 Z" fill="#f2cfa8" stroke="none" transform="rotate(260,374.5,236.5)" pointer-events="all"/><path d="M 24 95.23 C 24 163.27 55.06 218.43 93.39 218.43 C 131.71 218.43 162.77 163.27 162.77 95.23 Z" fill="#f2cfa8" stroke="#4d332d" stroke-width="2" stroke-miterlimit="10" transform="rotate(145,93.39,156.83)" pointer-events="all"/><path d="M 58.68 193.02 C 58.68 221.73 71.79 245 87.95 245 C 104.12 245 117.23 221.73 117.23 193.02 Z" fill="#f2cfa8" stroke="none" transform="rotate(145,87.95,219.01)" pointer-events="all"/><path d="M 315 95.23 C 315 163.27 346.06 218.43 384.39 218.43 C 422.71 218.43 453.77 163.27 453.77 95.23 Z" fill="#f2cfa8" stroke="#4d332d" stroke-width="2" stroke-miterlimit="10" transform="rotate(215,384.39,156.83)" pointer-events="all"/><path d="M 360 193.02 C 360 221.73 373.11 245 389.28 245 C 405.44 245 418.55 221.73 418.55 193.02 Z" fill="#f2cfa8" stroke="none" transform="rotate(215,389.28,219.01)" pointer-events="all"/><path d="M 115 90 C 90 118.47 90 161.53 115 190 C 139.99 161.53 139.99 118.47 115 90 Z" fill="rgb(255, 255, 255)" stroke="none" transform="rotate(-60,115,140)" pointer-events="all"/><path d="M 108 115 C 83 143.47 83 186.53 108 215 C 132.99 186.53 132.99 143.47 108 115 Z" fill="rgb(255, 255, 255)" stroke="none" transform="rotate(90,108,165)" pointer-events="all"/><path d="M 115 140 C 90 168.47 90 211.53 115 240 C 139.99 211.53 139.99 168.47 115 140 Z" fill="rgb(255, 255, 255)" stroke="none" transform="translate(0,190)scale(1,-1)translate(0,-190)rotate(-240,115,190)" pointer-events="all"/><path d="M 364 90 C 339 118.47 339 161.53 364 190 C 388.99 161.53 388.99 118.47 364 90 Z" fill="rgb(255, 255, 255)" stroke="none" transform="rotate(60,364,140)" pointer-events="all"/><path d="M 371 115 C 346 143.47 346 186.53 371 215 C 395.99 186.53 395.99 143.47 371 115 Z" fill="rgb(255, 255, 255)" stroke="none" transform="rotate(90,371,165)" pointer-events="all"/><path d="M 364 140 C 339 168.47 339 211.53 364 240 C 388.99 211.53 388.99 168.47 364 140 Z" fill="rgb(255, 255, 255)" stroke="none" transform="translate(0,190)scale(1,-1)translate(0,-190)rotate(-120,364,190)" pointer-events="all"/><path d="M 350.8 155.82 C 322.62 196.5 322.62 258.02 350.8 298.7 C 378.99 258.02 378.99 196.5 350.8 155.82 Z" fill="#f2cfa8" stroke="#4d332d" stroke-width="2" stroke-miterlimit="10" transform="rotate(333,350.81,227.26)" pointer-events="all"/><path d="M 314.78 144.1 C 274.99 195.29 274.99 272.7 314.78 323.89 C 354.57 272.7 354.57 195.29 314.78 144.1 Z" fill="#f2cfa8" stroke="#4d332d" stroke-width="2" stroke-miterlimit="10" transform="rotate(339,314.79,233.99)" pointer-events="all"/><path d="M 260.02 137.26 C 231.02 188.51 231.02 266.01 260.02 317.26 C 289.02 266.01 289.02 188.51 260.02 137.26 Z" fill="#f2cfa8" stroke="#4d332d" stroke-width="2" stroke-miterlimit="10" transform="rotate(-15,260.03,227.26)" pointer-events="all"/><path d="M 127.37 152.01 C 100.38 197.26 100.38 265.7 127.37 310.95 C 154.37 265.7 154.37 197.26 127.37 152.01 Z" fill="#f2cfa8" stroke="#4d332d" stroke-width="2" stroke-miterlimit="10" transform="rotate(27,127.38,231.48)" pointer-events="all"/><path d="M 160.82 161.64 C 122.28 209.67 122.28 282.32 160.82 330.35 C 199.36 282.32 199.36 209.67 160.82 161.64 Z" fill="#f2cfa8" stroke="#4d332d" stroke-width="2" stroke-miterlimit="10" transform="rotate(22,160.83,245.99)" pointer-events="all"/><path d="M 231.99 134 C 181.99 190.94 181.99 277.06 231.99 334 C 281.99 277.06 281.99 190.94 231.99 134 Z" fill="#f2cfa8" stroke="#4d332d" stroke-width="2" stroke-miterlimit="10" pointer-events="all"/><path d="M 141 133.82 C 141 162.59 185.32 185.91 240 185.91 C 294.68 185.91 339 162.59 339 133.82 Z" fill="#f2cfa8" stroke="none" transform="rotate(-180,240,159.87)" pointer-events="all"/><path d="M 252.43 124.62 C 225.92 175.87 225.92 253.37 252.43 304.62 C 278.94 253.37 278.94 175.87 252.43 124.62 Z" fill="#f2cfa8" stroke="none" transform="rotate(-15,252.44,214.62)" pointer-events="all"/><path d="M 140.37 138.01 C 113.38 183.26 113.38 251.7 140.37 296.95 C 167.37 251.7 167.37 183.26 140.37 138.01 Z" fill="#f2cfa8" stroke="none" transform="rotate(27,140.38,217.48)" pointer-events="all"/><path d="M 338.18 143.04 C 310 183.72 310 245.24 338.18 285.92 C 366.37 245.24 366.37 183.72 338.18 143.04 Z" fill="#f2cfa8" stroke="none" transform="rotate(333,338.19,214.48)" pointer-events="all"/><path d="M 172.48 144.1 C 172.48 178.29 184.44 206.01 199.2 206.01 C 213.96 206.01 225.92 178.29 225.92 144.1 Z" fill="#f2cfa8" stroke="none" transform="rotate(-180,199.2,175.05)" pointer-events="all"/><path d="M 259 152.01 C 259 186.2 270.96 213.92 285.72 213.92 C 300.48 213.92 312.44 186.2 312.44 152.01 Z" fill="#f2cfa8" stroke="none" transform="rotate(-180,285.72,182.96)" pointer-events="all"/><path d="M 196.72 30 Q 238.52 30 238.52 81.38 Q 238.52 132.75 196.72 132.75 Q 217.62 81.38 196.72 30 Z" fill="#f2cfa8" stroke="#4d332d" stroke-width="2" stroke-miterlimit="10" transform="translate(217.62,0)scale(-1,1)translate(-217.62,0)" pointer-events="all"/><path d="M 252.07 46 Q 293.87 46 293.87 91.78 Q 293.87 137.56 252.07 137.56 Q 272.97 91.78 252.07 46 Z" fill="#f2cfa8" stroke="#4d332d" stroke-width="2" stroke-miterlimit="10" transform="translate(272.97,0)scale(-1,1)translate(-272.97,0)rotate(-60,272.97,91.78)" pointer-events="all"/><ellipse cx="160" cy="347" rx="75" ry="50" fill="rgb(255, 255, 255)" stroke="rgb(0, 0, 0)" stroke-width="2" pointer-events="all"/><ellipse cx="160.59" cy="346" rx="21.59" ry="47.5" fill="#a40000" stroke="none" pointer-events="all"/><ellipse cx="319" cy="347" rx="75" ry="50" fill="rgb(255, 255, 255)" stroke="rgb(0, 0, 0)" stroke-width="2" pointer-events="all"/><ellipse cx="320.59" cy="346" rx="21.59" ry="47.5" fill="#a40000" stroke="none" pointer-events="all"/></g></svg>