<?xml version="1.0" encoding="UTF-8"?>
<!DOCTYPE svg PUBLIC "-//W3C//DTD SVG 1.1//EN" "http://www.w3.org/Graphics/SVG/1.1/DTD/svg11.dtd">
<svg xmlns="http://www.w3.org/2000/svg" xmlns:xlink="http://www.w3.org/1999/xlink" version="1.1" width="400px" height="400px" viewBox="-0.5 -0.5 400 400"><defs/><g><rect x="0" y="0" width="400" height="400" fill="none" stroke="none" pointer-events="all"/><path d="M 118.54 112.84 L 282.54 112.84 L 330.54 232 L 282.54 351.17 L 118.54 351.17 L 70.54 232 Z" fill="#f5f5f5" stroke="none" transform="rotate(90,200.54,232)" pointer-events="all"/><path d="M 40 135.34 L 170 222.01 L 40 308.67 Z" fill="#d6d194" stroke="none" pointer-events="all"/><path d="M 230 135.34 L 360 222.01 L 230 308.67 Z" fill="#d6d194" stroke="none" transform="translate(295,0)scale(-1,1)translate(-295,0)" pointer-events="all"/><ellipse cx="200" cy="195" rx="90.99999999999999" ry="90" fill="#00558a" stroke="none" pointer-events="all"/><ellipse cx="200" cy="216" rx="84" ry="84" fill="#5dc1d0" stroke="none" pointer-events="all"/><path d="M 158.9 109.96 L 241.9 165.92 L 158.9 221.88 Z" fill="#00558a" stroke="none" transform="rotate(91,200.4,165.92)" pointer-events="all"/><path d="M 147.2 53.66 L 253.89 66.82 L 147.2 79.98 Z" fill="#00558a" stroke="none" transform="rotate(-90,200.54,66.82)" pointer-events="all"/></g></svg>